<svg id="Layer_1" data-name="Layer 1" xmlns="http://www.w3.org/2000/svg" width="780" height="780" viewBox="0 0 780 780"><defs><style>.cls-1{fill:#666;}.cls-2{fill:#ded6b8;}.cls-3,.cls-4{fill:none;stroke-linecap:round;stroke-linejoin:round;stroke-width:4px;}.cls-3{stroke:#000;}.cls-4{stroke:#fff;}</style></defs><title>d20</title><circle class="cls-1" cx="390" cy="390" r="390"/><circle class="cls-2" cx="390" cy="390" r="370.5"/><path class="cls-3" d="M489.33,278c0,.08,1.39-.9,1.43-.83.16.27-3.72,4.44-3.57,4.69s4.66-2.78,4.7-2.71c.25.44-8.31,9-8.25,9.13.15.26,9.87-6.29,10.12-5.84s-11.69,8.23-11.56,8.45c.34.58,12.16-7.4,12.33-7.12.39.68-16.38,12.9-15.94,13.66.1.17,17.66-10.65,17.85-10.31.53.92-19,12-18.9,12.19.29.5,19-12,19.45-11.23s-24.21,18.45-23.82,19.13S498.65,291,499.3,292.09s-29.09,18.64-28.58,19.52c.9,1.56,29.26-18.32,29.88-17.25,1,1.71-34.48,23.38-33.86,24.45.74,1.28,34.88-22.66,36-20.77.13.23-39.81,23.88-38.73,25.75.56,1,39.55-24.29,40.18-23.2s-43.42,26.63-42.74,27.81c.16.27,43.26-26.88,44.08-25.45,1.47,2.54-46.78,26.3-45.64,28.27s45.12-29.15,46.47-26.83c.72,1.25-48.92,28.51-48.14,29.85s47.86-30.33,49-28.3c.61,1.06-54.27,34.87-53.45,36.3.27.46,54.35-34.7,55.78-32.21.66,1.14-58.83,31.92-57.19,34.75.21.36,57.62-34,57.94-33.45,1.54,2.66-64.48,38.49-62.56,41.81,1.72,3,63.32-40.45,65-37.53.28.48-70.71,40.38-68.61,44,.33.57,69.83-41.88,70.51-40.71s-73.4,39.69-71.64,42.75,71.7-42.62,72.23-41.7c2.06,3.57-78.26,46.74-76.6,49.61.73,1.26,77-48.83,78.91-45.56.69,1.2-84.81,49.77-83,52.93.93,1.61,83.52-52,85.14-49.16s-88.2,48-86.3,51.26c.36.63,86.24-51.35,86.92-50.18,1.45,2.52-92.15,49.48-89.28,54.45.47.82,89.23-54.51,90.53-52.27s-97.08,55.61-94.68,59.77c1,1.65,96-57.52,96.87-55.93,2.15,3.73-102.52,59.67-100.69,62.84,2.33,4,102.21-60.16,102.71-59.3.4.69-107.78,61.15-105.71,64.73,1.57,2.72,104.88-66.15,107.3-62,1.1,1.91-110.13,63.54-109.13,65.27.33.58,107.28-68.46,110.1-63.57,3.21,5.56-115.91,65.83-113.58,69.86,1.92,3.33,113.72-69.59,115.42-66.64,1.28,2.21-120.08,63.74-116.88,69.28,3.42,5.92,116.07-70.68,117.65-67.93,3.64,6.31-123.15,65.68-119.71,71.64,1.87,3.24,119.86-71.34,120.79-69.74,3.15,5.45-125.3,74.57-124.36,76.19.6,1,124.51-75.89,126.25-72.89,4,7-132.14,76.21-130.07,79.79,1.29,2.23,130.29-79.36,132.08-76.26,1.27,2.19-136.41,80.45-135.39,82.23,2.87,5,135.49-82,137.13-79.17,3.39,5.87-144,80.25-140.8,85.81,4.35,7.54,142.07-83.58,142.74-82.41,1.68,2.92-147.45,83.43-145.33,87.1,2.24,3.87,146.16-85.63,146.7-84.7,3.26,5.65-148.91,86-148.14,87.3,1,1.7,146-90.93,148.9-86,2.21,3.83-154.54,88.33-152.33,92.17,1.72,3,152.11-92.51,154.14-89,3.38,5.86-162,87.29-157.52,95.1,3.22,5.57,154.77-99.84,159.3-92,3.27,5.67-165,97.15-163.54,99.64C385,478,542.5,367.91,547.57,376.68c1.24,2.15-172.56,92.38-168.16,100,1.26,2.18,165.06-105.35,169.41-97.81,3,5.21-176.67,93.71-171.8,102.14,1.68,2.91,167.65-109.3,173.07-99.92,3.76,6.51-178,103.35-176.45,106C376.1,491.4,551,382.68,551.87,384.22c4.35,7.54-182.87,105.53-181.25,108.35.59,1,182.31-106.48,182.84-105.56,5.76,10-185.5,107.54-184.7,108.93,3.76,6.51,183.36-111.22,185.68-107.2,1,1.66-195.88,104.7-190,114.95,1.36,2.36,186.72-120.51,192.23-111,3.9,6.76-198.62,104.83-193.61,113.49,2.6,4.5,189-121.43,194.35-112.21,4.86,8.42-199.23,108.19-195.6,114.48C367.93,519,555.28,390.26,558.1,395.15c6,10.39-202.3,115.18-199.75,119.61C360,517.52,557.43,394,559.94,398.37c3.8,6.58-210.36,115.06-205.5,123.47C357.64,527.39,559.26,397.23,562,402c6.56,11.37-212.29,124.14-211.09,126.21,5,8.63,207.63-132.16,213-122.95,3.11,5.38-218.53,125.68-216.45,129.27,3.65,6.32,215-131.69,218.3-126,3,5.19-224.07,120.17-219.47,128.15,3.9,6.76,215.31-135.33,220.08-127.07,4,6.86-225.75,132.22-224.31,134.71,6,10.38,220-142.15,226.54-130.8,1.12,1.94-234.53,124.79-228.75,134.79,6.47,11.2,229-134.3,229.92-132.74,7,12.18-237.73,130.06-233,138.28,5,8.67,230.21-143.05,234.6-135.45,7.34,12.71-243.66,130.48-237.63,140.92,4.36,7.56,237-142.06,239.23-138.12,1.61,2.78-247.81,138.57-243.56,145.94,5.16,8.94,240-152.06,245.84-141.94,1.49,2.58-252.13,147.52-250.5,150.35,2.4,4.15,249.6-151.85,253-146,8,13.79-259.9,140.35-254.74,149.28,5.77,10,250.72-156.23,255.69-147.62,5.31,9.2-259.93,145.15-257.07,150.12,5.56,9.63,254.9-153.85,257.8-148.84,6,10.38-264.67,144.15-259.84,152.53,1.54,2.67,252.8-164.69,260.91-150.64,2.29,4-272.83,144.35-265,158S578.9,431.68,582.58,438.05c7.13,12.35-277,152.66-271.51,162.18,4.94,8.56,270.68-163.58,273.84-158.1C591.58,453.69,301.09,589,309.37,603.31c4.37,7.57,273.09-165.4,276.44-159.6,4.12,7.14-285.13,158.55-280.4,166.76,3,5.14,278.4-170.16,282.49-163.09S303,611.87,303.83,613.32c2.55,4.42,280.74-171.7,284.9-164.49,1.88,3.25-291.57,155.52-284.85,167.16,3.83,6.64,283.35-169.74,286-165.13,4.6,8-282.76,156.85-278,165.06,7.22,12.5,277.26-166.33,280-161.64,4.29,7.44-272.41,159-270.91,161.56,4.94,8.56,269.7-163.61,273.12-157.68,1.11,1.92-275.69,147.82-270,157.66,1.65,2.86,265.11-166.13,270.77-156.33,2,3.4-264.89,152.37-262.65,156.26,1.82,3.16,257-166,264.63-152.78,1,1.76-261.66,150.18-260.18,152.74,7.58,13.13,255.83-160.26,261.26-150.84C600.5,469.41,338,604.09,344.66,615.62c6.38,11,249.61-157,255.18-147.33,3.57,6.19-253.15,134.77-246,147.24,4.73,8.19,245-148.85,248.2-143.3,4.12,7.13-246.74,131.89-240.2,143.23,2.89,5,239.09-145.11,242.15-139.81,6.82,11.82-244,130.74-238.79,139.78,4,6.89,235.69-145.12,239.61-138.34,2.3,4-242,128.35-236.27,138.31,7,12.08,231.8-146,237.08-136.88,7.18,12.44-231,132.54-228.49,136.8,7,12.18,226.09-140.92,230.59-133.13,6.57,11.38-224.27,131.33-223.27,133.06C390.76,626.11,608,482.59,609.56,485.33c5.77,10-226.68,121.95-222.09,129.91,2.62,4.54,220.28-133,222.81-128.64,4.65,8-222.32,117.58-216,128.58,5.79,10,213.95-132.05,217.64-125.66,3.33,5.77-216.43,120.57-213.51,125.62C401,619.55,609.64,485.54,613,491.29,617.31,498.83,404.2,608.2,408.16,615,414,625.16,610.3,486.74,615.33,495.44c3.76,6.51-203.7,113-199.95,119.54S616,496.57,617.09,498.53C623.24,509.19,420.9,610,423.72,614.91c3,5.18,189.81-122.51,195.4-112.82,3.14,5.43-193,108.92-190.8,112.77,5,8.64,187.48-118.5,191.92-110.81,5.5,9.52-186.51,107.63-184.71,110.74C439.68,622,619.12,502.15,622,507.14c2.42,4.19-180.92,106.61-180.34,107.6s176.23-114.69,181.84-105c4.45,7.71-178.29,97.12-173.8,104.91.85,1.48,173.8-104.87,175.76-101.47,3.38,5.85-175.34,95.66-172,101.44.54.93,172.23-101,172.92-99.83,4.36,7.56-165.21,97.52-163.92,99.75,4.57,7.91,162.78-101.69,166.11-95.91,4.14,7.18-167,87.07-161.9,95.87,3.65,6.32,158.3-102.08,162.93-94.07,3.57,6.18-156.92,88.51-153.76,94,4.43,7.67,152.42-96.26,156-90.06,1.26,2.18-151.14,84-147.66,90,3.18,5.51,148.73-88.08,149.69-86.42,3.35,5.8-142.7,82.23-140.33,86.34,1.22,2.11,139.16-88.31,142.61-82.34.69,1.19-136.56,79-134.68,82.26,3.42,5.92,134.42-82.66,136.61-78.87,1.26,2.18-132.8,77.56-132.07,78.83.91,1.58,131.37-80,133.18-76.89,3.85,6.66-129.68,70.17-125.84,76.82S639.48,537.8,641,540.41C643.66,545,517.62,608.3,520.92,614c3.05,5.29,118.73-75.88,121.91-70.38,3.29,5.7-116.62,64.15-113.06,70.3,2.54,4.4,114.39-68,115.22-66.52,3.22,5.59-112.64,65.52-112.08,66.49,2,3.46,112.35-66,112.85-65.15,2.14,3.71-109,60.09-106.07,65.09s104.37-68,107.72-62.19c.52.91-99.27,59.76-97.91,62.1.87,1.51,98.9-60.34,100.31-57.91,1.08,1.86-97.61,56.44-96.77,57.88,2.93,5.07,95-60.89,97.64-56.37,2.42,4.2-90,55.09-89.29,56.29.48.83,90-55,91.32-52.72s-85.78,51.25-85,52.67c1.15,2,85.65-51.44,86.51-49.95,1.92,3.32-84.13,46.32-82.06,49.91,1.48,2.56,82.34-49.4,83.15-48,2,3.52-78.05,46.84-77.41,48,1.82,3.15,78.53-46,78.81-45.5.41.71-77.2,44.44-76.6,45.48.41.7,75.68-47.07,77.14-44.54,1.69,2.92-69,42.07-67.58,44.45S659.06,572.11,659.6,573c1.29,2.23-67.55,38.75-66.63,40.34s65.74-41.86,67.43-38.93c1.5,2.61-66.37,37-65.24,38.91,1.57,2.73,63.93-41.17,65.78-38,1,1.67-57.6,35-55.92,37.89.47.82,57.11-35.77,58.32-33.67,1.39,2.4-51.19,31.12-49.76,33.59.62,1.07,51.54-30.48,51.85-29.94,1.1,1.9-42.38,29.41-42.13,29.85.61,1.06,43.23-27.9,44.5-25.69.25.43-42.83,23.68-41.68,25.67.66,1.14,42.13-24.87,42.37-24.46,1.18,2-36.76,23.84-36.44,24.41.51.88,37.07-23.28,37.88-21.87s-34.74,21.6-34.6,21.84c.6,1,34.84-21.41,35.4-20.44.77,1.34-29.38,19.09-28.63,20.38s29.4-19,30.28-17.48c.16.27-23.91,16.78-23.54,17.42.21.36,24.43-15.83,25.18-14.54.61,1.05-20.33,13.85-20,14.49.13.22,21.1-12.5,21.24-12.26s-17.85,11.49-17.43,12.23,18.18-10.9,18.36-10.6-14.15,9.86-13.75,10.56c.22.38,14.46-9.31,14.87-8.59.25.43-13.13,7.89-12.75,8.57s13.06-8,13.26-7.66-3.36,7.32-3.22,7.57c0,0,5.54-3.5,5.67-3.27s-3.37,3.16-3.32,3.25,3.77-2.45,3.89-2.25-.8,2.18-.78,2.22,1.49-1,1.54-.89" transform="translate(-110 -110)"/><path class="cls-4" d="M442,470.82c.53.93,19.17-12.25,19.68-11.36.28.49-12.24,9.88-11.9,10.48.23.4,15.37-9.76,15.75-9.1s-11.78,10.6-11.39,11.27c.16.28,15.32-9,15.4-8.89.42.73-14.09,9.86-13.68,10.58.14.24,14.85-9.65,15.32-8.84.37.64-14.29,10.51-14,11.09.12.21,15.33-9.06,15.42-8.9.49.84-14.85,12-14.75,12.17.25.44,15.94-10.26,16.4-9.47.08.14-16.73,10.76-16.56,11.05.34.58,17-10.36,17.23-9.95.37.64-18.36,14.39-18.23,14.61.28.49,18-11.46,18.47-10.67.1.17-19.32,11.72-19,12.25s18.64-11.63,19-11c.72,1.25-23.8,18.28-23.32,19.11.33.57,22.86-13.82,23.13-13.36.74,1.28-27.59,17.39-27,18.48.38.66,23.16-14.79,23.77-13.72s-27.85,15.79-27,17.3c.24.41,25.81-15.77,26.19-15.12.19.34-49.71,31.29-49.14,32.27.82,1.42,45.06-27.37,45.65-26.35.84,1.45-45.64,28.76-45,29.93.26.45,24.42-15.26,24.92-14.39.18.31-23.47,13.72-22.81,14.87.39.68,21.49-12.87,21.69-12.53.45.78-16.46,11.68-16,12.44.29.5,20.64-12.44,20.87-12,.51.89-17.59,11.14-17.23,11.76s19.49-12.42,20-11.55c.41.71-12.33,9.26-12,9.86s15.41-9.34,15.6-9-10.85,10-10.63,10.43c.52.9,18-11.23,18.33-10.58.21.37-7.48,8.7-7.21,9.17.9,1.57,28.52-16.93,28.72-16.58.56,1-23.68,16.77-22.9,18.12.67,1.16,22.51-13.67,22.8-13.16.18.31-15,13.25-15,13.38s12.54-7.73,12.75-7.36c.12.21-5.85,6.06-5.67,6.37,0,.07,4.35-2.81,4.48-2.59" transform="translate(-110 -110)"/><path class="cls-4" d="M434.5,464.2c.26.44,8-5.18,8.23-4.75.42.73-12.91,9.16-12.51,9.85s18.51-11,18.66-10.77c.6,1-23.43,17.59-23.3,17.82.46.8,30.24-19.28,31-17.91.68,1.18-31.41,19.15-31.08,19.72.92,1.59,33-20.09,33.47-19.32.71,1.23-31.62,20.63-30.83,22,0,.06,6-3.59,6-3.47" transform="translate(-110 -110)"/><path class="cls-4" d="M530,464.4c.36.63,13-8.31,13.36-7.71.19.32-7.33,7.31-7.1,7.71s10.42-6.61,10.68-6.16-6.2,7.71-6,8.13c.1.17,9.3-5.48,9.35-5.4.22.38-6.55,6-6.33,6.34.07.13,7.81-5.07,8.05-4.65s-5.49,5.85-5.34,6.11c.06.1,7.24-4.28,7.28-4.2.21.36-4.92,6.4-4.88,6.47s7.88-5.07,8.11-4.68c0,.07-7.39,5.58-7.31,5.71s8.31-5.07,8.43-4.86-6.17,7.53-6.12,7.62,7.72-4.91,7.91-4.57c0,.07-7.29,5.2-7.17,5.41s7.35-4.59,7.5-4.33c.25.43-5.64,8.52-5.48,8.81s6.62-4,6.69-3.87c.21.36-6.48,6.26-6.3,6.56s7.38-4.71,7.57-4.37-6.71,5.06-6.48,5.46c.07.12,7.35-4.49,7.46-4.31s-5.75,7-5.67,7.17,8-4.86,8.1-4.67-7.73,8.11-7.59,8.36,8.35-5.22,8.53-4.92c.07.12-8.73,6.14-8.47,6.59.15.27,8.49-5.08,8.57-4.95.28.48-9.43,8-9.16,8.48.13.22,9.23-5.56,9.33-5.39.31.54-10.29,7.25-10.07,7.63s9.89-6.3,10.15-5.86c.38.65-11.15,8.65-10.83,9.2s10.72-6.5,10.85-6.26-16.29,13-16,13.52c.41.72,14.26-8.92,14.56-8.41" transform="translate(-110 -110)"/><path class="cls-4" d="M512.78,465c.47.82,14.71-9.57,15.17-8.76.59,1-18.73,12.15-18.17,13.12s21.71-12.94,21.89-12.64c.67,1.15-26.15,19.12-26,19.38.52.89,33.62-21.44,34.5-19.92.78,1.35-36.1,21.74-35.72,22.4s14.82-9,15-8.67c.4.7-16.85,13.15-16.4,13.92.06.1,10-6,10.08-5.82.29.51-10.3,7.06-10.23,7.19s8.89-5.61,9.1-5.25-9.67,10.53-9.48,10.85c.08.15,6.77-4.31,6.94-4s-7.17,6.82-7,7.07,6.67-4.18,6.81-3.93c.25.44-6.5,8.29-6.34,8.56s7-4.57,7.26-4.19c0,0-6.54,6.66-6.32,7,.1.18,7.18-4.41,7.3-4.21s-6.34,6.52-6.22,6.73c0,0,7.14-4.43,7.27-4.2.24.41-6.77,5.4-6.58,5.72s7.08-4.58,7.3-4.21c.11.19-6.65,5.62-6.53,5.83s7.15-4.53,7.33-4.23c.09.15-4.52,7.78-4.4,8s6.71-4.28,6.89-4c.08.13-6,4.74-5.77,5.06,0,0,6.64-3.92,6.68-3.86.16.29-3.27,7.11-3.07,7.46s7.06-4.51,7.25-4.19c0,0-4.5,6.54-4.29,6.9,0,.07,8.76-5.25,8.84-5.1s-8,5.53-7.8,5.89,9.26-5.51,9.33-5.39c.22.37-5,7.89-4.88,8.19s11.05-7,11.32-6.54c.07.12-6,8.06-5.85,8.39s16.55-10.3,16.87-9.74-15.34,9.5-15,10.09c.15.25,34.52-20.55,34.79-20.09.51.88-31.37,18.7-30.37,20.44.15.26,28.15-17.2,28.56-16.49.26.44-18,14.33-17.46,15.18.09.16,9.35-5.6,9.44-5.45" transform="translate(-110 -110)"/><path class="cls-3" d="M307.58,625.73c0,.07,1.29-.84,1.33-.77s.21,2.36.28,2.47,4.32-2.58,4.35-2.51-1.72,5.3-1.69,5.34c.14.24,9.14-5.83,9.38-5.41s-8.39,6.4-8.29,6.56c.31.54,11.26-6.85,11.41-6.59.24.42-9,9-8.7,9.47.09.16,16.35-9.86,16.53-9.55.44.77-15.87,10.18-15.75,10.38.27.47,17.6-11.1,18-10.4.23.41-15,13.43-14.73,13.88s23.59-15,24.2-14-22.76,15.23-22.35,15.93c.83,1.44,27.1-17,27.67-16,.74,1.28-25.14,18.35-24.68,19.15.68,1.19,32.3-21,33.31-19.23.11.19-32.12,19.91-31.24,21.43.52.9,36.63-22.5,37.21-21.49S327.95,647,328.52,648c.14.25,40.06-24.89,40.83-23.57,1.28,2.22-40.65,23.1-39.66,24.81,1.11,1.92,41.79-27,43-24.84.63,1.09-42.45,25-41.78,26.18s44.32-28.08,45.4-26.21c.49.85-42.74,28.6-42.08,29.74.25.43,50.33-32.13,51.66-29.83.58,1-52.06,28.44-50.61,30.95.19.34,53.37-31.48,53.65-31,1.25,2.16-51.74,32-50.18,34.67s58.64-37.46,60.2-34.76c.23.41-59.28,34.55-57.5,37.63.31.53,64.67-38.78,65.3-37.7s-66,35.84-64.45,38.6S408.74,623.2,409.23,624c1.72,3-65,39.71-63.61,42.11.67,1.17,71.33-45.22,73.08-42.19.59,1-71.57,42.76-70,45.44.86,1.49,77.35-48.12,78.85-45.52s-79.69,43.48-78,46.45c.34.58,79.87-47.55,80.49-46.47,1.28,2.22-81.26,44-78.72,48.36.44.76,82.64-50.48,83.84-48.4,1.06,1.84-82.78,48.16-80.73,51.71.88,1.53,88.86-53.27,89.71-51.79,1.86,3.23-88.43,52.1-86.84,54.84,2.15,3.73,94.66-55.71,95.12-54.92.35.61-94.68,54.16-92.86,57.31,1.46,2.52,97.13-61.26,99.37-57.37,1,1.71-98.89,57.29-98,58.83.31.54,99.35-63.4,102-58.87,2.81,4.87-101.4,58.11-99.36,61.65,1.78,3.08,105.32-64.45,106.89-61.71,1.16,2-108.69,57.86-105.8,62.88,3.17,5.49,107.49-65.46,109-62.91,3.27,5.67-110.51,59.19-107.42,64.54,1.73,3,111-66.07,111.86-64.59,2.77,4.8-110,66-109.19,67.43.55,1,115.31-70.28,116.92-67.5,3.53,6.12-115.87,67.39-114.05,70.55C372.91,696,492.39,620.4,494,623.27c1.12,1.94-120.76,71.68-119.84,73.26,2.66,4.6,125.48-76,127-73.32,3,5.19-127.08,71.33-124.25,76.25,4,7,131.57-77.4,132.19-76.32,1.51,2.62-132.15,75.1-130.25,78.39,2.07,3.59,135.36-79.3,135.86-78.44,3,5.14-135.48,78.38-134.78,79.59.91,1.57,135.24-84.22,137.9-79.62,2,3.4-137.3,78.94-135.33,82.35,1.6,2.77,140.87-85.67,142.75-82.42,3,5.22-144.23,78.15-140.22,85.11,3,5.16,143.33-92.46,147.53-85.18,2.89,5-145.62,86.36-144.35,88.56,3,5.17,148.84-96.77,153.53-88.64,1.12,1.94-155.73,83.65-151.75,90.54,1.16,2,152.86-97.57,156.89-90.58,2.72,4.71-159.49,84.88-155.1,92.49,1.56,2.7,155.26-101.23,160.28-92.54C555.48,628.57,393,715.58,394.38,718c2.28,4,164.24-96.72,165.06-95.3,3.91,6.78-164.26,95.17-162.8,97.7.54.94,168.84-98.61,169.33-97.76,5.24,9.08-168.66,98-167.93,99.25,3.48,6,169.81-103,172-99.28.85,1.48-174,93.58-168.75,102.7,1.26,2.19,172.93-111.61,178-102.78,3.57,6.18-181.56,96-177,103.89,2.4,4.16,175.05-112.46,180-103.92,4.45,7.71-182.37,99.16-179,104.92,5.64,9.78,179.15-109.47,181.76-104.94,5.38,9.33-181.45,103.74-179.15,107.72,1.48,2.56,184.36-111.81,186.69-107.79,3.4,5.89-188.1,103.38-183.75,110.91,3,5.14,189.69-115.4,192.23-111,5.9,10.22-190.66,111.94-189.59,113.79,4.61,8,192.29-122.4,197.22-113.86,2.79,4.84-196.46,113.42-194.59,116.65,3.38,5.85,199.15-122,202.17-116.72C619,626.92,410.7,732.49,414.92,739.81c3.61,6.26,199.4-125.33,203.82-117.68,3.55,6.15-201.94,118.82-200.65,121,5.55,9.61,203.73-131.65,209.8-121.13,1,1.77-213.41,113.79-208.15,122.89,6,10.37,212.1-124.37,212.93-122.94C639,633,417.76,739.95,422.05,747.39c4.64,8,213.2-132.48,217.27-125.44,6.64,11.51-220.45,118.4-215,127.85,4,7,219.45-131.56,221.55-127.91,1.44,2.49-222.13,124.75-218.31,131.36,4.78,8.28,222.26-140.83,227.68-131.45C656.58,624.11,429.6,754.42,431.06,757c2.22,3.85,231.16-140.63,234.26-135.25,7.28,12.61-237.64,128.51-232.92,136.68,5.34,9.25,232.19-144.68,236.79-136.71,4.87,8.44-238.39,133.26-235.76,137.81,5.15,8.92,236.07-142.49,238.75-137.84,5.47,9.48-241.63,131.82-237.22,139.47,1.43,2.48,234.12-152.52,241.63-139.51,2.07,3.58-245.68,130.47-238.6,142.74S673,621.11,676.25,626.8c6.18,10.7-239.7,132.81-234.93,141.06,4,7,221.41-133.8,224-129.32,5.4,9.35-229.42,119.08-222.72,130.68,3.46,6,215.85-130.73,218.49-126.15,3.18,5.5-219.17,123-215.52,129.3,2.16,3.74,202.73-123.91,205.7-118.76s-205.12,119-204.51,120c1.8,3.11,197.65-120.89,200.58-115.81,1.31,2.27-203.64,109.42-198.94,117.56,2.59,4.49,191.69-114.83,193.49-111.71,3.17,5.48-194,109-190.72,114.66,4.68,8.1,179.8-107.86,181.56-104.82,2.84,4.92-179.41,106.44-178.42,108.16,3,5.26,165.93-100.66,168-97,.69,1.19-170.47,92.06-167,98.15,1,1.72,160-100.25,163.4-94.34,1.21,2.09-162,94.94-160.58,97.33,1,1.8,146.9-94.9,151.27-87.33.59,1-150.58,87.49-149.72,89,4.2,7.27,141.61-88.71,144.62-83.5,1.48,2.57-145.59,80-141.84,86.46,3.31,5.74,129.72-81.57,132.61-76.56,1.9,3.28-133.23,73.34-129.41,80,2.26,3.92,117.3-71.27,118.83-68.61,2,3.48-119.25,66-116.06,71.56C469.77,799,574,732.69,575.37,735c3,5.26-108,58.93-105.72,62.95,1.69,2.93,100.19-61.69,101.86-58.81,1,1.71-103.16,55.78-100.7,60,2.85,4.93,94.71-59.67,96.87-55.93,3,5.18-94.92,57.31-93.89,59.09,2.56,4.44,82.4-51.36,84-48.52,2.43,4.22-81.88,50.58-81.51,51.22,2,3.52,72.62-43.11,73.13-42.22,1.89,3.27-73.61,40.71-72.1,43.32.81,1.4,67.93-41,68.71-39.67,1.45,2.52-68.32,38.75-66.34,42.18,1.56,2.7,57.52-35.5,58.51-33.78.9,1.56-57.87,33.94-57.08,35.3.62,1.08,51.54-31.63,52.35-30.22,1.08,1.88-50,32.1-49,33.8s36.93-23.44,37.85-21.85c.69,1.2-36,23.31-35.35,24.51.51.88,26.93-15.9,27.09-15.64.83,1.45-24.58,18-24.2,18.71.22.39,14.23-9.19,14.65-8.46.23.41-13.22,9.87-13.06,10.15s7.61-4.81,7.79-4.5-6.75,5.54-6.68,5.67,3-1.83,3-1.75" transform="translate(-110 -110)"/><path class="cls-4" d="M490.3,714c.21.36,8.78-5.51,9-5.18.08.14-4.89,7-4.73,7.33,0,.09,7.91-4.78,8-4.62.26.44-5.71,7.89-5.52,8.2.05.09,8.61-5.26,8.74-5s-7.77,7.73-7.62,8,8.68-5.38,8.84-5.1-8.66,6.21-8.49,6.51,8.71-5.64,9-5.18-8.8,6.38-8.75,6.46c.15.25,9.12-5.35,9.16-5.29.25.44-9.15,7.4-9.1,7.48.26.45,9.38-6.12,9.69-5.59.17.29-10.85,10.67-10.53,11.23s9.57-6.18,9.85-5.69c.13.23-10.82,7.42-10.66,7.7s9.92-5.95,10-5.78" transform="translate(-110 -110)"/><path class="cls-4" d="M488.16,677.87c.19.34,6.94-4.44,7.13-4.12.09.16-1.94,4.48-1.83,4.67s6.61-4.2,6.77-3.91-2.3,5.67-2.15,5.93,7.49-4.41,7.53-4.35c.22.37-6.4,5.89-6.19,6.26.08.14,8.45-5.49,8.71-5s-8,7.17-7.77,7.52c.08.14,10.17-6,10.23-5.91.32.55-9,8.7-8.93,8.81.17.29,10.43-6.71,10.72-6.19.06.1-11.2,7.69-11.09,7.89.23.39,11.53-7,11.69-6.75.28.49-13.3,11.55-13.21,11.71.21.37,13.76-8.75,14.11-8.14.08.13-15,9.41-14.8,9.82s14.19-8.86,14.48-8.36" transform="translate(-110 -110)"/><path class="cls-4" d="M467.62,682c.39.67,12-7.8,12.38-7.15s-13.65,9.54-13.23,10.27,19.47-11.61,19.63-11.33c.51.89-19.53,15.38-19.42,15.58.21.37,14-8.93,14.37-8.29s-14.08,9.55-13.92,9.81c.34.59,12.2-7.42,12.36-7.14.29.5-11.19,10.18-10.87,10.73.06.11,11.64-7,11.77-6.8.32.56-11.36,7.65-11.28,7.79s10.92-6.89,11.17-6.45c.16.27-9,10.17-8.83,10.47s9.12-5.81,9.35-5.4-7.15,6.81-7,7.06c.26.46,8.59-5.38,8.77-5.07s-5.52,7.76-5.38,8,8.51-5.53,8.78-5.07c0,0-6.23,6.5-6,6.87.12.22,8.78-5.4,8.92-5.15s-6.6,6.66-6.47,6.88S511,690,511.56,691c.9,1.56-28.27,16.63-27.57,17.84s23.39-15.11,24.08-13.9c.36.62-24,15-23.57,15.67s20.64-13.08,21.15-12.21c.36.63-31.1,22.27-30.61,23.12.11.19,22.83-14.57,23.43-13.53.28.49-24.85,14.45-24.15,15.67,0,.08,12.94-7.63,13-7.51.37.65-13.29,12.29-12.83,13.1.22.38,8-5.13,8.25-4.76,0,.06-6.7,7.68-6.43,8.14,0,.06,7.61-4.56,7.68-4.43s-7.25,5.14-7.06,5.47,7.31-4.35,7.36-4.25c.21.36-4.64,7.68-4.48,8,.05.1,5.81-3.69,6-3.44,0,.08-1.81,5.8-1.7,6s4.75-3,4.84-2.8-3.25,3.11-3.17,3.26,4.28-2.55,4.32-2.49-.48,3-.4,3.14,16.31-10,16.55-9.55-12.17,8.93-11.84,9.5c.09.16,9.15-5.48,9.23-5.33" transform="translate(-110 -110)"/><path class="cls-3" d="M687.5,627.83c.17.29,5.14-3.34,5.3-3.06.36.63-10.94,8.15-10.59,8.75s12.92-7.7,13-7.52c.57,1-21.93,16.74-21.81,17,.38.67,25-16,25.67-14.82s-29.55,18.11-29.24,18.65c.84,1.46,30.4-18.5,30.81-17.79.91,1.57-40.77,25.68-39.77,27.41.24.42,43.23-26.07,43.71-25.24,1.27,2.2-46.63,27.44-46.3,28,.71,1.23,46.36-29.24,47.43-27.39.81,1.41-59.16,37.45-58.26,39,.77,1.33,61.44-39.13,63-36.39,1.69,2.94-70.29,40.85-69.1,42.92,2.16,3.74,70.29-44,71.78-41.44,2.29,4-83.07,49.56-81.64,52,1.77,3.06,83.38-54.17,86-49.65.32.55-95.35,52.6-92.82,57,1.34,2.32,94.32-57.94,95.83-55.33S616.79,699.3,618.39,702.07c.37.64,103-64,104.93-60.58,3.46,6-111.48,60.09-108.8,64.73,2.84,4.92,107.3-69.33,110.5-63.8,1.7,2.94-116.48,65.08-114.65,68.25,1.93,3.35,113.7-72.05,116.48-67.25,1.43,2.47-129.38,75.71-127.46,79,.63,1.09,128.88-82.28,132.29-76.38,1.55,2.68-139.64,73.45-135.78,80.13.5.86,136.58-80.56,137.32-79.28,3.57,6.18-153.26,83.9-148.81,91.61,4.07,7.06,149.88-95.74,153.87-88.84.65,1.12-167.72,89.9-162.8,98.42.78,1.35,165.13-99,166.74-96.26s-173.7,92.06-169.54,99.27,169.52-100.76,170.77-98.6c4.8,8.31-185.48,103.57-181.63,110.24,1.72,3,181.94-115.35,186.41-107.62,1.61,2.79-200.78,111.1-196.52,118.48,2.19,3.79,197.16-122.66,201-116S544.34,769,548.81,776.74c.86,1.49,203.55-121.18,205.14-118.44,3.41,5.9-217.73,113.07-211,124.73,1.12,1.94,210.53-128.6,213.59-123.31,2.89,5-229.48,124.68-223.89,134.37C534.89,798,758.9,658.46,761.06,662.2c5,8.7-242.18,134.66-237.91,142.06,5.48,9.49,240.92-141.79,242.08-139.77.94,1.62-254.38,139.4-249.55,147.77,3.7,6.42,247.11-155.86,252.82-146,2.58,4.47-259.71,146.82-257.38,150.85.79,1.36,252.69-161.24,259.33-149.73" transform="translate(-110 -110)"/><path class="cls-4" d="M683.25,664.75c.28.48,8.61-5.6,8.88-5.13.79,1.37-25.45,15.59-24.7,16.89.47.81,20.21-12.05,20.38-11.77s-8.13,8.93-8.07,9,8.08-5.15,8.29-4.78-6.21,5.19-6.13,5.31c.23.4,8.24-5,8.35-4.82s-4.79,6.81-4.61,7.11c0,.08,8.12-4.89,8.21-4.74.2.35-6.8,5.09-6.74,5.18s7.76-4.89,7.94-4.58c.09.16-3.36,7.08-3.25,7.26s8.06-5.14,8.27-4.78-6.73,6.58-6.59,6.82c.54.94,17.62-11,18-10.39.64,1.11-21.74,16.26-21.34,17,.13.23,6.19-4,6.38-3.68" transform="translate(-110 -110)"/><path class="cls-4" d="M655.27,691.35c.18.32,6.58-4.2,6.75-3.9.07.11-.18,3.53-.1,3.67s5.67-3.6,5.81-3.35-1.5,5.24-1.36,5.48S672,689.94,672,690c.15.26-3.9,4.6-3.76,4.85,0,.08,5.13-3.33,5.29-3.06s-4.17,5.15-4,5.37,5.64-3.34,5.68-3.28" transform="translate(-110 -110)"/><path class="cls-4" d="M642.6,696.39c.45.77,13.82-9,14.26-8.23.56,1-17.59,11.56-17.06,12.48.16.28,6.94-4.13,7-4,.21.37-6.42,8-6.38,8s6.62-4.22,6.79-3.92-5.9,5-5.83,5.14c.19.33,6.89-4.19,7-4s-2.47,5.58-2.34,5.8c0,.07,7.26-4.38,7.34-4.24.18.31-6.09,4.69-6,4.77s8.14-5.13,8.32-4.81c.05.09,1.71,4.25,1.77,4.36.23.39,18.2-11.59,18.67-10.78.2.35-7,6.75-6.9,7s6.84-4.28,7-4c.28.48-7.46,8.81-7.29,9.11s7.8-5.07,8-4.64c0,.06-8.3,7.58-8,8,.09.16,6.42-3.94,6.52-3.77s-7.21,7-7.08,7.23c0,0,6.88-4.28,7-4.05.23.4-6.55,5.29-6.38,5.6s5.28-3.41,5.44-3.14-5.36,4.92-5.26,5.09,5.06-3.2,5.18-3" transform="translate(-110 -110)"/><path class="cls-3" d="M776,343s.49-.32.51-.29-1.54,3.3-1.44,3.46,1.43-.85,1.44-.83c.14.24-3,6-3,6.09s2.92-1.86,3-1.73-3.67,3.78-3.62,3.86,3.57-2.17,3.62-2.09c.17.3-5.39,7.13-5.2,7.46,0,0,5.15-3.1,5.2-3,.17.3-5.7,4.47-5.66,4.55s5.53-3.49,5.66-3.27-7.73,9.47-7.57,9.75,7.38-4.7,7.57-4.37-8.81,7.71-8.64,8c.26.45,8.46-5.3,8.64-5,.36.62-10.61,10.51-10.38,10.9s10.07-6.54,10.38-6c0,.08-11.95,9.47-11.59,10.09.16.28,11.41-7,11.59-6.69s-12.92,10.09-12.7,10.48c0,.08,12.47-7.75,12.7-7.33.45.78-13.73,9-13.39,9.65s13-8.4,13.39-7.73c.22.38-14.36,9.8-14.12,10.21s13.78-8.73,14.12-8.15c.21.36-16.33,14.23-16,14.71.08.13,15.64-10,16-9.27.2.34-17.16,10.5-16.67,11.35.06.1,16.58-9.78,16.67-9.62.51.88-19.32,15.38-18.69,16.48.49.86,18.2-11.63,18.69-10.79.09.15-20.93,15-20.26,16.13.09.16,20.07-12,20.26-11.7s-21.28,12.47-20.75,13.37,20.6-12.24,20.75-12c.66,1.14-23.2,17.55-22.67,18.47.21.36,22.12-14,22.67-13.09.22.38-25,18.14-24.45,19.13.27.46,24-14.92,24.45-14.12S751,425,751.52,426c.1.18,24.77-14.75,25-14.41.44.76-26.87,16.42-26,17.92.14.24,25.63-15.65,26-15s-28.57,19.87-27.82,21.17c.27.47,27.56-16.52,27.82-16.06.66,1.15-30.06,20.75-29.5,21.73.67,1.16,29.35-17.28,29.5-17s-31.44,20.4-30.81,21.49c.45.78,30.12-19,30.81-17.79.33.56-31.91,20-31.62,20.51.1.17,30.81-19.66,31.62-18.25,1,1.69-33.85,22.19-33.14,23.42.55,1,32.66-20,33.14-19.14.38.65-34.72,19.68-33.79,21.3s33.33-20.3,33.79-19.51c1.08,1.87-35.71,20.78-34.69,22.55.54.93,34.42-20.49,34.69-20,1,1.65-36.53,24.83-36.25,25.32.17.3,35.75-21.79,36.25-20.93,1.22,2.11-38.56,25.51-37.93,26.6.37.64,37.41-22.79,37.93-21.9.38.66-39.68,26.26-39.38,26.8.82,1.43,38.9-23.55,39.38-22.73,1,1.77-42,26.5-41,28.18,1.25,2.17,40.79-24,41-23.66.5.87-42.75,26.42-42.12,27.51s42-24.59,42.12-24.32c1,1.65-43,26.07-42.75,26.45s41.93-26.11,42.75-24.68c.66,1.15-44.92,28.62-44.26,29.77.49.86,43.67-26.56,44.26-25.55,1,1.75-47.09,28.23-45.74,30.57.92,1.6,44.44-28.66,45.74-26.41,1,1.71-48,31.95-47.6,32.7.93,1.6,46.14-30,47.6-27.48.37.63-49.94,28.76-48.64,31,.36.62,47.39-30.25,48.64-28.08.89,1.54-51.12,29.15-49.69,31.63.48.84,48.13-31.38,49.69-28.69,1.12,1.94-51.63,32.9-51.17,33.7.71,1.23,50.92-30,51.17-29.54,1.29,2.23-53,33.18-52.49,34,.17.29,52.34-30.57,52.49-30.31,1.69,2.92-53.54,32.66-53.31,33.07,1.08,1.87,52.64-31.93,53.31-30.78.29.5-57,34.06-55.19,37.13.39.68,53.61-34.6,55.19-31.86,1.14,2-57.25,31.4-55.8,33.92.75,1.29,54.27-34.86,55.8-32.21,1.41,2.45-57.4,32.25-56.35,34.08,1.75,3,55.54-33.94,56.35-32.53,1.78,3.08-58.63,36.38-57.87,37.7.46.79,57.15-34.66,57.87-33.41,1.13,2-61,36.72-59.59,39.23.92,1.59,58.8-35.77,59.59-34.41,1.94,3.37-61.49,39-61.14,39.63,1.43,2.48,59.61-37.94,61.14-35.3.92,1.59-63.29,39.42-62.67,40.49,1,1.81,61.73-37.81,62.67-36.18S712,553,713.3,555.28c1.12,1.94,61.81-38.85,63.18-36.48,1.18,2-65.47,42-65,42.75,1.72,3,63.16-40.81,65-37.55.33.57-67.69,37.9-66,40.83,1.86,3.22,65.75-38.55,66-38.11,2.07,3.58-68.75,40.24-67.35,42.65s66.09-41.07,67.35-38.88c2.16,3.74-70.45,40.31-68.68,43.38,1.25,2.17,68-40.78,68.68-39.65.48.83-71.84,43.88-70.58,46.07,1.48,2.57,68.9-43.65,70.58-40.75.44.77-73.1,46.81-72.62,47.65.69,1.19,71.66-43.59,72.62-41.93,2.32,4-74.9,42-73.4,44.58,1.66,2.87,72-44.85,73.4-42.38,1.54,2.67-74.84,43-74,44.43,1.6,2.77,73.18-44.17,74-42.73,1.75,3-76.31,43.31-74.9,45.75.44.77,72.57-47.28,74.9-43.24.68,1.17-79,45.23-76.68,49.26s75.62-46.1,76.68-44.27c2.11,3.66-80.24,48-78.61,50.81,1.42,2.46,77.7-47,78.61-45.39,1.94,3.36-81.76,43.75-79.36,47.91,1.26,2.17,78.4-47.48,79.36-45.82,1.21,2.09-81.82,48.91-80.44,51.31.85,1.46,79.28-48.45,80.44-46.44s-79.6,47.36-79.36,47.77c.71,1.23,78.2-47.83,79.36-45.82.51.89-78.88,44-77,47.18,1,1.79,76.32-45.72,77-44.48,1.23,2.14-74.28,44.49-73,46.69,1.88,3.26,72.3-43.37,73-42.15,1.11,1.93-68.82,44-68.43,44.66,1.24,2.14,67.57-41,68.43-39.51.28.48-68.28,37.91-66.87,40.37.41.71,65.47-41,66.87-38.6.48.83-63.31,39.9-62.76,40.85.43.75,61-39.38,62.76-36.24.24.41-60.87,36.86-60.52,37.47,1.76,3,59.26-37.12,60.52-34.94.6,1-58,34.52-56.46,37.17,1.41,2.44,55.22-34.73,56.46-32.59.78,1.35-53.37,32.43-51.8,35.15,1,1.71,51.13-31.06,51.8-29.91.85,1.47-49.1,29.79-47.76,32.12.57,1,47.15-28.62,47.76-27.57,1.34,2.31-47.08,26.73-46.06,28.5.76,1.32,45.31-27.89,46.06-26.59.44.76-45.47,25.62-44.37,27.52,1.3,2.26,43.38-27.33,44.37-25.62,1.32,2.28-40.49,27.21-40,28,1.22,2.12,39.25-24.47,40-23.11,1.12,1.94-36.51,24.85-36.34,25.14,1,1.75,36.09-21.42,36.34-21,.92,1.6-35.58,20.53-34.84,21.8.41.71,34.45-20.8,34.84-20.12.71,1.23-32.36,20.33-31.39,22,.84,1.45,30.86-19,31.39-18.13s-29.72,18.55-29.31,19.27,28.85-17.71,29.31-16.92c.57,1-24.92,18.72-24.4,19.61.69,1.19,23.81-15.11,24.4-14.09.42.73-21.18,15.35-20.76,16.09s20.64-12.18,20.76-12c.6,1-16.82,13.82-16.55,14.29S776,641,776.48,641.8c.25.44-14.4,10.52-14.22,10.83.37.64,13.89-8.78,14.22-8.21s-10.71,10-10.58,10.21c.24.41,10.42-6.39,10.58-6.11s-7.51,7.75-7.48,7.8,7.25-4.72,7.48-4.32-3.55,6.25-3.39,6.53c0,0,3.35-2,3.39-2s-1.53,2.89-1.48,3,1.47-.86,1.48-.85" transform="translate(-110 -110)"/><path class="cls-4" d="M757.84,559.12c.14.24,5.9-3.71,6-3.48s-3.86,6.49-3.72,6.74c0,.06,5.51-3.33,5.57-3.22.21.36-3.89,6.92-3.74,7.17,0,.06,5.35-3.27,5.43-3.14s-3.88,5.61-3.78,5.78,4.44-2.75,4.52-2.61-4.06,3.74-4,3.9,4-2.58,4.1-2.37-3.64,3.46-3.62,3.49,4-2.35,4-2.32c.11.19-3.2,4-3.18,4.06.11.19,3.9-2.55,4-2.33s-2.56,6.29-2.41,6.55,3.36-2.17,3.46-2-2.94,3.83-2.88,3.93,3.22-1.93,3.25-1.88-1.95,4.3-1.91,4.37,2.79-1.66,2.81-1.62-2.28,3.76-2.17,4a20.3,20.3,0,0,0,2.23-1.29" transform="translate(-110 -110)"/><path class="cls-4" d="M732.92,544c.25.43,8.87-5.67,9.11-5.26.09.16-2,4.49-1.84,4.68s5.71-3.63,5.85-3.38-1.52,5.25-1.38,5.49,5.86-3.46,5.89-3.4c.13.23-3.09,4.18-3,4.4s5-3.27,5.2-3-3,4.54-2.91,4.71,5.43-3.21,5.46-3.15c.15.26-2.74,5.16-2.71,5.21s5.09-3.28,5.24-3c0,0-4.43,3.94-4.38,4s5.19-3.16,5.26-3-4.82,6.76-4.77,6.84,6.56-4.17,6.72-3.88c0,.08-8.75,6-8.61,6.24s9-5.61,9.18-5.3" transform="translate(-110 -110)"/><path class="cls-4" d="M724.43,543.32c.22.39,7-4.52,7.17-4.14.31.54-9.14,7.23-8.84,7.74s13.79-8.22,13.9-8c.38.65-13.71,12.09-13.63,12.23s3.92-2.5,4-2.32-2.93,3.37-2.89,3.44,3.2-1.95,3.25-1.87-1.7,5.17-1.59,5.37c0,0,4.28-2.58,4.33-2.5s-3.35,3.15-3.32,3.2,4.15-2.61,4.24-2.45-.69,5.61-.62,5.73,4.58-2.92,4.7-2.71-2.18,4.12-2.11,4.24,4.87-3,5-2.87-.89,5.23-.81,5.37,6.31-4.1,6.51-3.76c0,0-3.16,4.9-3,5.14s8.36-5.13,8.49-4.9-5.2,5.9-5.09,6.08,12.41-7.71,12.64-7.3c.35.61-10.5,7.35-10.23,7.82s9.1-5.88,9.38-5.41c.11.2-7.14,5.32-7,5.53s6.1-3.86,6.24-3.6" transform="translate(-110 -110)"/><path class="cls-3" d="M495.81,267.83s.85-.55.88-.51.19,2.38.25,2.49,2.86-1.7,2.88-1.66-1,4.91-1,4.95,6-3.86,6.21-3.58-5.51,4.8-5.45,4.92c.21.36,7.46-4.54,7.56-4.36s-5.84,7.37-5.65,7.71c.06.1,10.83-6.53,10.95-6.32.3.52-10.47,7.15-10.39,7.28.18.31,11.65-7.35,11.92-6.88.17.29-9.8,10.6-9.61,10.93s15.62-9.95,16-9.25-15,11-14.72,11.52c.55,1,17.94-11.23,18.32-10.58.51.88-16.53,13.71-16.21,14.26.45.79,21.38-13.89,22.05-12.73.07.13-21.19,14.25-20.59,15.29.35.6,24.25-14.89,24.64-14.22S510.17,293,510.55,293.66c.1.16,26.52-16.48,27-15.6.86,1.48-26.87,15.9-26.2,17s27.66-17.87,28.49-16.45c.42.73-28.06,17.21-27.6,18s29.34-18.59,30.06-17.35c.33.58-28.17,20.67-27.72,21.45.16.28,33.32-21.27,34.2-19.75.39.67-34.42,19.38-33.46,21,.13.22,35.33-20.84,35.52-20.51.84,1.46-34.13,23-33.08,24.79s38.82-24.8,39.85-23c.16.27-39.15,24.27-38,26.34.2.35,42.81-25.68,43.23-25s-43.69,24.17-42.63,26,44-26.13,44.28-25.57c1.16,2-42.91,28-42,29.61.45.77,47.22-29.94,48.38-27.93.39.68-47.27,29.9-46.23,31.7.57,1,51.21-31.86,52.2-30.14s-52.72,29.24-51.58,31.21c.22.39,52.88-31.48,53.29-30.77.86,1.48-53.73,30-52,33,.29.5,54.71-33.42,55.5-32s-54.69,33.5-53.31,35.88c.58,1,58.83-35.26,59.39-34.29,1.25,2.16-58.43,36-57.37,37.82,1.43,2.47,62.66-36.88,63-36.35s-62.6,37-61.38,39.14c1,1.67,64.3-40.55,65.78-38,.66,1.14-65.41,38.65-64.82,39.68.2.35,65.77-42,67.5-39,1.88,3.25-67,39.83-65.66,42.19,1.18,2,69.72-42.66,70.76-40.86.77,1.33-71.92,38.88-70,42.21,2.1,3.63,71.16-43.33,72.13-41.65,2.18,3.77-73.1,40-71,43.54,1.15,2,73.49-43.74,74.05-42.76,1.85,3.2-72.72,45.11-72.17,46.06.37.63,76.34-46.53,77.4-44.69,2.36,4.08-76.6,46.12-75.38,48.22.79,1.37,79.88-48.65,81-46.75.75,1.29-79.84,48.76-79.23,49.81,1.76,3,83.07-50.28,84.07-48.54,2,3.46-84,48.66-82.13,51.94,2.67,4.62,87.1-51.24,87.51-50.53,1,1.74-87.41,50.74-86.14,52.92,1.37,2.37,89.61-52.5,89.94-51.93,2,3.41-89.64,52.46-89.18,53.26.6,1,89.53-55.75,91.29-52.71,1.31,2.27-90.79,53.61-89.48,55.88,1.06,1.83,93.26-56.71,94.5-54.56,2,3.48-95.39,53.05-92.72,57.69,2,3.42,94.88-61.21,97.67-56.39,1.93,3.34-96.27,58.85-95.43,60.31,2,3.42,98.53-64.06,101.64-58.68.74,1.29-103,56.3-100.38,60.88.77,1.33,101.19-64.59,103.86-60,1.81,3.13-105.52,57.12-102.6,62.18,1,1.79,102.78-67,106.1-61.26,2.24,3.88-105.24,62.79-104.32,64.39,1.51,2.62,108.73-64,109.27-63.09,2.6,4.51-108.65,64.19-107.68,65.88.36.62,111.77-65.28,112.09-64.72,3.48,6-111.59,65.6-111.11,66.44,2.3,4,112.42-68.19,113.84-65.72.57,1-115.08,63.62-111.58,69.69.84,1.45,114.48-73.89,117.85-68,2.37,4.1-120.15,64.07-117.12,69.33,1.59,2.76,115.89-74.45,119.15-68.79,3,5.12-120.69,66.14-118.49,70,3.74,6.47,118.6-72.47,120.33-69.47,3.58,6.2-120,70-118.49,72.69,1,1.7,122.05-74,123.59-71.36,2.26,3.92-124.42,70-121.52,75,2,3.4,125.58-76.4,127.27-73.48,3.92,6.8-126.12,75.5-125.41,76.74,3.05,5.29,127.31-81,130.57-75.38,1.86,3.22-130,76.47-128.72,78.62,2.24,3.88,131.85-80.74,133.85-77.28,1.82,3.16-136,73.5-133.23,78.36,2.39,4.14,132-83,134.94-77.91,2.36,4.09-133.57,80.34-132.71,81.82,3.67,6.36,134.88-87.16,138.91-80.2.68,1.17-141.23,76.2-137.74,82.24,4,6.87,140.43-82.34,141-81.39,4.23,7.32-142.21,79.29-139.36,84.23,3.07,5.32,141.16-87.71,143.85-83.05,4.41,7.64-145.87,79.58-142.25,85.85,2.67,4.63,145.29-87.11,146.69-84.69,1,1.66-146.94,84.29-144.4,88.69,3.16,5.48,147.16-93.24,150.74-87,.89,1.54-149.26,89.65-148.29,91.34,1.47,2.55,153.05-93.11,155.11-89.55,4.83,8.37-157.29,85.79-154.16,91.21,3.54,6.13,153.74-95.8,156.78-90.52,3.23,5.59-157.8,88.78-156.05,91.8,3.41,5.91,156.3-94.34,158.08-91.27,3.63,6.29-159.93,88.08-157,93.15.95,1.64,155-101,160-92.37,1.37,2.38-162.56,88-157.85,96.12,4.82,8.35,161.53-98.47,163.79-94.56,4.27,7.39-164.75,92.95-161.46,98.64,3,5.25,166-100.31,167.92-96.95,4.06,7-172,89.81-167,98.52C593.53,439,758.32,333,760.37,336.53c2.47,4.29-170.27,96.61-167.43,101.53,1.82,3.15,170.72-104.35,173.22-100s-172.9,100.6-172.39,101.48c1.56,2.7,171.53-104.91,174.08-100.5,1.14,2-177,95.45-172.92,102.53,2.3,4,170.36-102,172-99.28,2.83,4.89-172.92,97.65-170,102.7,4.34,7.52,166.76-100,168.39-97.22,2.65,4.59-167.1,99.49-166.18,101.09,3,5.15,162.28-98.45,164.34-94.88.67,1.17-167,90.24-163.59,96.21,1,1.72,159.55-100,163-94.08,1.21,2.1-162.36,95.16-161,97.56,1.1,1.9,154.73-100,159.33-92,.62,1.07-159.15,92.33-158.24,93.89C607.48,463.46,757,359,760.26,364.71c1.62,2.81-159.49,87.17-155.38,94.28,3.84,6.66,150.4-94.58,153.75-88.77,2.21,3.84-156,85-151.5,92.71,2.85,4.94,147.7-89.74,149.63-86.39C759.31,381,605,459.35,609.09,466.36c1.74,3,144.21-87.53,146.06-84.33,4.16,7.2-148.42,80.26-145.24,85.76,2.4,4.16,142.2-87.55,144.56-83.46,1.4,2.43-147.25,78.82-143.74,84.89,4.21,7.29,139.88-88.12,143.07-82.6,4.46,7.72-142.5,83.62-141,86.27,4.25,7.36,136.51-85.09,139.23-80.38C756.11,399.55,614,475,614.6,476c3.78,6.55,135-80.15,136-78.5,3.52,6.1-138,74.91-135.24,79.77C616.91,480,748.44,396.91,750,399.56c2.87,5-136.9,73.85-133,80.66,3.5,6.07,129.36-79.84,131.59-76,2,3.54-132.37,74.64-130.58,77.74,1.54,2.67,127.74-78.38,129.74-74.91,2.73,4.72-129.85,74.77-127.37,79.06,3.53,6.12,122.36-77.67,125.4-72.4,2.34,4-126,71.45-123.64,75.49s121.5-71.72,122.18-70.54c3.85,6.67-121.91,71.06-120.15,74.11s115.07-74.27,118.46-68.39c1.94,3.35-118.71,68-117.34,70.36,3,5.24,113.71-71.87,116.4-67.21,3.43,5.95-115.77,68.34-114.64,70.29,2.52,4.36,111.43-68.38,113.18-65.35,1.51,2.61-112,67.34-111.69,68s107-69.66,110.45-63.77c2.8,4.85-111.31,62.31-108.49,67.21.52.9,105.67-63.76,106.86-61.69,2.09,3.62-108,59.73-105.94,63.3.33.57,104.76-61.45,105.18-60.73,2.76,4.79-103.8,63.16-103,64.57,2.78,4.82,99.13-61.93,101.17-58.41,2.57,4.46-103.29,54.75-100.14,60.21,2.22,3.85,96.46-62.2,99.28-57.32,2.27,3.93-99.06,57.75-97,61.24,2.7,4.68,93-58.74,95.19-55,.8,1.39-95.37,54.68-93.16,58.52,1.94,3.37,90.88-53.82,91.47-52.81,2.15,3.72-90.71,54.18-89.18,56.81.75,1.29,85.18-54.05,87.29-50.4.44.76-86.56,51.7-85.35,53.79,2.1,3.63,82.41-50.67,83.75-48.35.79,1.37-83.1,49.49-82.64,50.29.56,1,80.61-49.1,81.72-47.18,2.46,4.27-82.39,46.05-79.93,50.31s77.52-46.89,78.44-45.29c1.72,3-78.73,44.84-76.6,48.53,1.88,3.26,73.11-46.72,75.06-43.34,2.14,3.71-75.22,43.11-72.91,47.12,1.57,2.72,70.61-41.94,71.12-41.06,2,3.52-70.7,41.79-70.35,42.4,1.23,2.14,69.41-40.78,69.71-40.25,1.39,2.4-69.93,39.91-68.06,43.15,1.74,3,64.61-42.1,66.69-38.5.35.6-65.2,41.14-64.3,42.7.54.94,61.44-37.49,62.31-36,.69,1.19-62,36.56-61.45,37.48,1.82,3.15,59.11-37.88,60.73-35.06s-59.16,37.83-58.7,38.63c.3.52,56.2-34.31,57-32.91.89,1.54-56,34.7-55.45,35.63.72,1.25,53.63-32.21,54.17-31.27,1.25,2.16-54.43,30.84-53.08,33.18.93,1.61,51.67-31,52.18-30.13,1.35,2.33-51.21,31.84-50.78,32.58,1.15,2,49.44-28.95,49.62-28.65.27.46-49.47,28.92-49.08,29.59.26.44,47.71-29.68,48.63-28.08,1.18,2-47.26,30.5-46.3,32.16.84,1.45,44-26.2,44.37-25.62.85,1.47-44.17,26-43.57,27s41.82-26.63,42.9-24.77c1,1.7-43.1,24.44-42.37,25.71,1,1.74,40.75-26.24,41.92-24.2.69,1.2-40.73,26.32-39.52,28.42.3.53,36.74-23,37.52-21.66,1,1.74-36.47,23.53-35.43,25.32.4.7,33.5-19.81,33.7-19.46.84,1.45-31.52,23.28-31.33,23.61.4.7,28.52-18.41,29.36-17,.17.3-29.47,16.78-28.67,18.16.44.76,27.94-16.5,28.1-16.22.88,1.52-26.9,18.34-26.66,18.76.34.59,24.91-15.65,25.46-14.7s-24.75,15.93-24.65,16.1c.41.7,23.61-14.51,24-13.85.62,1.07-22.93,15.72-22.34,16.74.47.82,20.35-13.17,21-12.11.13.22-19.63,14.46-19.32,15,.15.25,17.42-11.29,18-10.37s-17,12.06-16.68,12.6c.09.16,15.53-9.19,15.63-9s-15.06,10-14.7,10.65,13.79-8.27,13.93-8-13.18,9.36-12.8,10c.18.31,11.54-7.43,11.87-6.85.22.38-11.7,7.16-11.35,7.76s10.75-6.6,10.92-6.3-8.71,10.18-8.47,10.6c0,0,6.29-4,6.43-3.71s-5.95,4.57-5.86,4.72,5.22-3.39,5.39-3.11-4.29,5-4.22,5.15,3.16-2,3.25-1.88-2,4.09-2,4.13.9-.53.91-.52" transform="translate(-110 -110)"/><path class="cls-4" d="M665.83,376.36c.12.21,11-6.53,11.06-6.39s-4,5.11-4,5.2,6-3.51,6-3.48-5,3.84-4.8,4.14,5.56-3.36,5.63-3.25-4.61,4.25-4.55,4.34,5.42-3.28,5.48-3.17-4.26,4.29-4.2,4.4,5.14-3.14,5.22-3-2.32,4.89-2.18,5.14,3.62-2.26,3.69-2.13" transform="translate(-110 -110)"/><path class="cls-4" d="M663.21,354.51c.06.1,2.91-1.8,3-1.71.18.31-2,6.49-1.89,6.67s4.63-3,4.77-2.75c0,.06-5,7.86-4.92,8.07.21.37,6.81-4.3,7-4" transform="translate(-110 -110)"/><path class="cls-4" d="M625.17,374.18c.09.15,2.65-1.73,2.74-1.58s-2.86,4-2.73,4.21,4.68-2.79,4.72-2.72c.13.23-2.61,5.81-2.58,5.86s4.87-3.11,5-2.89-4.14,4-4.09,4.13c.14.24,5.06-3.08,5.13-3s-3.18,6-3,6.2c.05.09,9.28-5.59,9.38-5.41.26.44-8.89,6.26-8.82,6.38.61,1.06,40-25.24,40.93-23.63.55,1-39.2,26.6-38.59,27.66.5.86,39.86-25.39,40.89-23.61S633.8,390.5,634.5,391.7c1.23,2.13,40.07-25.09,40.92-23.63,1.13,2-39.81,26.26-39.11,27.48.15.26,7-4.53,7.2-4.15,0,0-5.83,6.29-5.62,6.64.09.15,6-3.71,6.14-3.54s-4.78,5.67-4.68,5.84,4.45-2.76,4.53-2.62-3.32,3.27-3.22,3.44,2.9-1.88,3-1.73" transform="translate(-110 -110)"/><path class="cls-4" d="M660.7,439.32c.16.28,10.48-6.35,10.6-6.12s-9,6.81-8.84,7,9.36-5.75,9.51-5.49-6.49,9.22-6.41,9.36c.24.41,8.75-5.71,9-5.22s-7.32,9.13-7.09,9.52c.13.22,10.38-6.57,10.63-6.14s-9.13,8.32-9,8.58,9.6-6,9.79-5.65c.07.11-8.72,5.9-8.44,6.39.15.25,8.4-5.14,8.52-4.92s-6.45,4.95-6.29,5.23c.08.13,6.05-3.63,6.11-3.53" transform="translate(-110 -110)"/><path class="cls-4" d="M662.95,411.95c.19.33,8.06-5.06,8.24-4.76,0,.07.67,4,.75,4.16s5.18-3.13,5.24-3l2.23,3.73c0,.07,6.18-3.77,6.26-3.62s-4.43,5.92-4.33,6.1c.2.34,9.85-6.11,10-5.79.3.53-11.13,7.53-10.91,7.91s12.64-8.19,13-7.52" transform="translate(-110 -110)"/><path class="cls-4" d="M637.06,440.8c.33.57,11.8-7.54,12.12-7s-15.54,11.6-15.11,12.34c.94,1.63,62.72-39.83,64.29-37.12,1.76,3-65.48,38.28-63.66,41.44.73,1.27,69.13-40.77,69.5-40.13,1.92,3.33-68.55,37.93-66.68,41.18.32.55,33.91-22,35-20.19" transform="translate(-110 -110)"/><path class="cls-4" d="M644.66,409.93c.19.32,5.83-3.79,6-3.47s-5.53,5.37-5.33,5.71,9.4-5.61,9.48-5.47c.24.42-7.89,8.79-7.83,8.89.22.39,14.53-9.26,14.9-8.61s-14.45,9.75-14.3,10c.47.82,17.07-10.38,17.3-10,.37.64-15.23,12.3-14.82,13,0,.08,8.4-5.06,8.49-4.9.23.39-7.84,5.67-7.78,5.78s8-5,8.18-4.72-5.76,8.4-5.63,8.63,7.89-5,8.1-4.67-7,6.73-6.85,7c.26.45,8.4-5.26,8.58-5s-7.77,7.45-7.61,7.72,9.4-6.11,9.7-5.6" transform="translate(-110 -110)"/><path class="cls-3" d="M496.52,178.08c0,.06,1-.65,1-.6s-1.22,3.13-1.13,3.28,3.37-2,3.4-2c.15.26-3.59,6.36-3.56,6.42s7.14-4.55,7.33-4.23-7.47,5.89-7.39,6c.24.42,8.8-5.35,8.92-5.15.25.43-9.35,9.22-9.08,9.69.07.12,12.78-7.7,12.92-7.46.37.64-13.06,8.6-13,8.77.21.37,13.75-8.68,14.07-8.13.23.4-14.52,13.18-14.27,13.62s18.44-11.74,18.91-10.92-19.37,13.4-19,14c.65,1.13,21.18-13.27,21.63-12.49.66,1.14-22.23,16.78-21.81,17.5.54.93,25.26-16.41,26-15,.09.16-26.92,17.22-26.17,18.51.41.71,28.65-17.6,29.1-16.8s-29.7,19.19-29.22,20c.11.19,31.34-19.47,31.93-18.44,1,1.8-32.81,19-32,20.4s32.69-21.12,33.66-19.43c.51.88-34.28,20.59-33.74,21.54s34.67-22,35.51-20.5c.42.73-36.28,25.09-35.72,26.06.19.33,39.37-25.14,40.42-23.33.47.81-41.64,23.09-40.48,25.1.15.26,41.75-24.63,42-24.23,1.06,1.83-43.52,27.77-42.2,30.06s45.9-29.32,47.12-27.2c.19.34-48.77,29.18-47.29,31.73.24.41,50.63-30.36,51.12-29.51s-52.44,28.74-51.17,30.94,52-30.9,52.37-30.24c1.44,2.49-53.74,33.75-52.59,35.74.53.92,55.87-35.42,57.24-33,.48.84-58.72,36-57.44,38.18.67,1.17,60.59-37.7,61.77-35.66S492.56,246,493.93,248.41c.26.46,62.57-37.25,63.06-36.41,1,1.79-65.22,35.84-63.18,39.39.34.6,64.75-39.55,65.69-37.93s-67.16,40-65.48,42.91c.69,1.19,69.23-41.5,69.89-40.35,1.42,2.45-66.68,40.42-65.48,42.51,1.57,2.73,69.2-40.73,69.54-40.15s-66.42,39.08-65.14,41.3c1,1.73,66.79-42.12,68.33-39.45.67,1.15-66.24,39.11-65.64,40.15.2.35,65.86-42,67.59-39s-63.79,38.11-62.49,40.36c1.1,1.91,65.21-39.91,66.19-38.21.7,1.22-65.81,35.72-64,38.78,1.91,3.3,64.72-39.41,65.6-37.87,1.92,3.33-64.41,35.52-62.59,38.66,1,1.74,64.28-38.26,64.77-37.4,1.53,2.66-60,38-59.54,38.77.3.52,62.47-38.07,63.34-36.57,1.82,3.15-58.68,36.41-57.74,38,.6,1,61-37.13,61.8-35.68.54.94-57.4,36.19-57,37,1.27,2.19,59.74-36.17,60.47-34.91,1.36,2.35-56.38,34.1-55.09,36.32,1.8,3.12,58.71-34.54,59-34.06.65,1.13-56,33.64-55.19,35.06s57.73-33.82,57.95-33.46c1.24,2.15-56.13,33.5-55.84,34,.38.65,56.26-35,57.37-33.12.78,1.35-53.12,33.09-52.35,34.44.63,1.08,55.25-33.6,56-32.32,1.12,1.95-52.53,31-51,33.62,1.1,1.91,53.07-34.23,54.63-31.54,1,1.74-48.86,32.41-48.42,33.17,1,1.78,51.3-33.35,52.92-30.55.37.64-50.76,29.18-49.44,31.47.39.67,50.63-32.31,52-30,.87,1.5-49.86,28.5-48.46,30.92.5.86,49.4-32.21,51-29.45,1,1.75-46.47,30-46.05,30.74.69,1.19,49.39-29.09,49.64-28.66,1.12,1.93-45.64,29.1-45.22,29.82.16.27,48.29-28.2,48.43-28,1.45,2.51-45.9,28.33-45.7,28.67,1,1.67,47.08-28.56,47.68-27.53.22.38-42.75,26.84-41.4,29.17.33.56,44.64-28.81,46-26.53.9,1.55-45.07,25.07-43.92,27.07.61,1.05,44.15-28.36,45.4-26.21,1.1,1.9-44.38,25.28-43.56,26.69,1.39,2.41,44.24-27,44.89-25.92,1.24,2.15-40.32,26.34-39.79,27.26.34.6,42.95-26,43.49-25.11.73,1.27-38.68,25-37.75,26.62.65,1.12,41.36-25.16,41.91-24.2,1.19,2.07-37,25.18-36.75,25.55.95,1.64,39.48-25.13,40.5-23.38.53.92-35.73,24.11-35.37,24.73.65,1.13,38.5-23.58,39.09-22.57s-38.17,21.64-37.38,23c.68,1.19,37.78-23.75,38.62-22.3.61,1.06-32.65,23.54-32.43,23.92,1,1.69,35.85-23.17,36.92-21.31.17.3-34.56,20.64-33.68,22.16,1,1.75,35.89-21,36-20.8,1,1.73-32.21,20.81-31.54,22s34.14-21.22,34.8-20.09c1,1.7-31.17,19.85-30.36,21.25.61,1.06,33.26-19.94,33.58-19.39.19.34-27.76,20.16-27.24,21,.67,1.16,31.08-19.69,31.84-18.38.16.28-25.2,19.86-25,20.17.28.49,29.57-18,30-17.3.88,1.53-27.91,17-27.34,18,.66,1.14,28.68-17.87,29.24-16.88S646.81,297,647.12,297.56c.62,1.07,28.37-17.12,28.69-16.56.62,1.07-26.2,16.49-25.7,17.35.16.29,27-17.59,27.87-16.09.21.36-22.65,16.4-21.93,17.65s25.88-15.77,26.24-15.15c.59,1-20.23,16.06-19.78,16.84S686.68,287,687,287.47c.55,1-22.66,13.59-22,14.78.38.65,23.49-14.23,23.78-13.73s-18.32,14.66-18,15.25c.23.4,21.87-13.36,22.19-12.81S673,304.28,673.11,304.38c.19.33,21.23-13,21.55-12.44.13.22-18.8,12.49-18.34,13.29.28.48,20.47-12.27,20.67-11.93.29.5-15.56,12.84-15.26,13.35.49.86,19-11.4,19.18-11.07s-13.13,12.53-13,12.68c.32.55,17.27-10.48,17.49-10.1.07.11-15.73,10.06-15.39,10.65.1.18,16.56-10.38,16.91-9.76.1.18-11.52,11-11.41,11.2s14.95-9.66,15.39-8.89c.05.09-12.46,9.54-12.38,9.68.42.73,14.26-8.93,14.56-8.41.12.21-9.41,9.31-9.11,9.83s12.78-8,13.06-7.54c.14.25-7.1,8.68-6.81,9.18s11.19-6.8,11.34-6.55-6.15,7.56-5.91,8c.12.2,9.72-5.9,9.84-5.68.24.42-7.75,6-7.56,6.28s9.06-5.58,9.22-5.32-7.14,5.58-7,5.91,8.4-5.29,8.59-5-2.84,6.37-2.77,6.48c.21.37,6.85-4.27,7-4s-2.05,5.29-2,5.33c.16.27,5.58-3.31,5.62-3.25s-3.7,3.61-3.61,3.77,5-3,5.07-2.93-.54,4-.44,4.14,3.73-2.3,3.79-2.19-1,2.86-1,2.92,3-1.82,3-1.74,3.48,3.32,3.57,3.47,1.18-.75,1.2-.7.46,1.1.48,1.14.74-.43.74-.43" transform="translate(-110 -110)"/><path class="cls-4" d="M592.6,259.65c.13.22,5.42-3.41,5.54-3.2s.51,4.12.59,4.25,5.77-3.49,5.83-3.37.25,4.66.34,4.82,5.21-3.18,5.29-3.05-.91,4-.85,4.09,4.27-2.65,4.34-2.51" transform="translate(-110 -110)"/><path class="cls-4" d="M568.44,242.49c.31.53,11.07-7.07,11.37-6.56.18.31-7,7.13-6.75,7.51s10-6.36,10.27-5.93-7.63,8.45-7.35,8.94c.1.18,9.63-5.68,9.68-5.59.28.48-8.69,7.08-8.42,7.55.07.13,7.91-5.13,8.15-4.71s-7.18,6.69-7,7c.07.11,8.06-4.76,8.1-4.68" transform="translate(-110 -110)"/><path class="cls-4" d="M546.57,248.34c.2.34,6.13-4,6.32-3.65s-4.62,4.9-4.45,5.2c.38.67,16.6-9.9,16.74-9.66.33.57-11.73,11-11.66,11.1s5.59-3.57,5.74-3.31-3.62,3.75-3.57,3.84c.14.25,5.17-3.15,5.24-3s.39,4,.47,4.18,4.85-2.92,4.9-2.83-3.18,3.06-3.16,3.11,4.72-3,4.82-2.79,2,4.08,2.06,4.19,5.13-3.26,5.26-3-1.58,3.79-1.52,3.9c.39.68,12.81-8,13.08-7.55s-8.87,9.58-8.68,9.91,9.29-6,9.58-5.53c0,.07-10.45,8.69-10.13,9.24.17.3,12-7.36,12.17-7s-12.12,9.66-11.91,10c.06.1,15.46-9.61,15.75-9.1.49.85-15,9.7-14.62,10.36s16.56-10.7,17-9.84c.25.43-16.21,10.8-15.94,11.26.17.29,9.72-6.16,10-5.75.08.15-4.33,7.68-4.22,7.88s5.86-3.74,6-3.47c.06.1-4.36,3.91-4.21,4.17,0,0,5.09-3,5.12-3s-2.63,3-2.52,3.19,2.9-1.85,3-1.72" transform="translate(-110 -110)"/><path class="cls-3" d="M368.87,246.67c3.7,6.41,114.84-74.67,118.46-68.39,7.76,13.44-259.6,135.54-252.25,148.27,5.8,10,250.17-149.15,252.21-145.61,5.69,9.86-239.3,139.59-238,141.79,3.56,6.17,231.86-147.84,237.91-137.36C492.15,194,252.61,317,255,321.17c6.35,11,229-139.32,232.1-134,4.77,8.26-222.89,121-217.64,130.11,1.2,2.08,215.11-129.69,217.49-125.57,5.81,10.06-214.83,121.84-213.32,124.45,3.2,5.54,208.45-131.49,213.28-123.14,2.65,4.59-198.76,113.32-195.81,118.43C293.49,315.56,481.83,190,486.74,198.5c4.5,7.8-189,104.81-185.81,110.3,5.58,9.67,181.86-113.88,185.71-107.22,4.69,8.12-172.72,97.85-169.78,102.93,3.49,6,164.46-106.84,169.61-97.93.54.93-162.88,87.52-158.59,95,2.22,3.84,156-95.81,158.47-91.49,2.27,3.92-150.58,84.74-148.27,88.74.52.9,145.39-90.33,148.16-85.54,4.51,7.81-145.42,77.82-141.93,83.86,3.65,6.32,137.76-89,141.86-81.91,2,3.46-137.33,76.37-135.17,80.1,2.24,3.89,131.89-83.57,135.1-78,1.32,2.28-119.19,70.18-117.42,73.24.56,1,114.22-72.92,117.24-67.69,1.27,2.2-114.78,60.68-111.61,66.17.4.7,110.95-65.44,111.55-64.4,2.25,3.9-95.87,54.55-93.05,59.42,2.46,4.26,90.45-57.78,92.86-53.61.32.55-80.88,45.57-78.48,49.74.37.64,77.57-46.52,78.32-45.22s-75.63,40.85-73.81,44,73.22-43.52,73.76-42.59c1.53,2.65-57.52,35.75-56.29,37.88.52.9,54.76-34.72,56.1-32.39.34.59-40.72,26.44-39.81,28,.43.75,38.89-24.19,39.64-22.89.65,1.13-35.77,20.29-35,21.63.15.25,34.67-20.64,34.94-20.18.43.75-26.35,16.16-25.5,17.63.13.23,25-15.29,25.4-14.66.15.26-9.11,9.7-8.82,10.2.08.15,8.54-5.12,8.62-5" transform="translate(-110 -110)"/><path class="cls-4" d="M358,272.77c.11.19,4.56-2.86,4.66-2.69s6.84.34,7,.57,16.31-9.86,16.5-9.53-3,6.46-2.91,6.7c0,.08,7.75-4.73,7.86-4.54,0,0,1.16,2.67,1.21,2.75s4.37-2.71,4.45-2.57" transform="translate(-110 -110)"/><path class="cls-4" d="M399,247.23c.17.3,6.2-4,6.37-3.67" transform="translate(-110 -110)"/><path class="cls-4" d="M366.52,253.66c.13.23,4.06-2.64,4.19-2.42l1.16,2c.13.22,5.54-3.3,5.58-3.22s.42,4.08.44,4.11c.17.3,11.12-7.09,11.41-6.59s-12.32,8.58-12.19,8.81c.5.87,18.14-11,18.38-10.61.52.89-22.15,15.93-21.58,16.91.09.15,15.57-9.39,15.75-9.09.44.76-15.76,10.12-15.65,10.32.21.37,14-8.84,14.33-8.28" transform="translate(-110 -110)"/><path class="cls-4" d="M436.34,245.3c.19.34,8.21-5.16,8.39-4.84.06.1-2.17,5.59-2.06,5.78s8-4.83,8.09-4.67c.31.54-8.07,8.73-7.85,9.11.07.12,11.26-6.87,11.42-6.59" transform="translate(-110 -110)"/><path class="cls-4" d="M442.34,228.08c.08.14,2.92-1.86,3-1.73s2.59,1.95,2.66,2.08,5.34-3.39,5.47-3.16-4.31,6.72-4.11,7.06c.1.17,9.24-5.45,9.29-5.36" transform="translate(-110 -110)"/><path class="cls-4" d="M423.36,236.24c.42.72,12.93-8.41,13.34-7.7.5.86-15.44,10.46-15,11.28.27.47,11.79-7,11.88-6.86.27.48-9.27,9.57-9.21,9.68s8.45-5.39,8.67-5-6.24,5.21-6.17,5.33c.2.35,7.31-4.45,7.41-4.28.34.59-13.72,11.51-13.35,12.16.21.37,38.24-23.06,38.66-22.32,1.24,2.15-45.52,26.82-45.2,27.38.66,1.14,43-27.12,44-25.4.58,1-41.4,27.79-40.76,28.91.1.17,7.67-4.88,7.87-4.54s-2.86,4.49-2.78,4.62,5.1-3.19,5.2-3,6.65.83,6.75,1c.41.71,19.29-12.53,19.9-11.49,0,.08-14.17,8.93-13.78,9.61.18.31,12.75-7.83,13-7.48" transform="translate(-110 -110)"/><path class="cls-3" d="M219.7,341c.11.19,3.36-2.18,3.47-2s-2.95,4-2.82,4.26c.26.45,11.27-6.72,11.36-6.56.3.52-10.36,10.19-10.29,10.31.37.63,23.84-15.2,24.46-14.12.53.92-24.29,15.2-24,15.65.82,1.41,29.39-17.88,29.78-17.2.67,1.16-29.43,19.74-28.69,21,.24.41,42.67-25.73,43.14-24.91,1.18,2-43.13,25.48-42.83,26,.7,1.22,45.93-29,47-27.13.64,1.12-46.39,30.51-45.67,31.75s61.55-39.2,63.13-36.45-63.47,37.17-62.39,39c2.17,3.76,70.7-44.28,72.2-41.68,2,3.46-72.25,43.73-71,45.89,1.79,3.1,84.27-54.75,86.91-50.18.29.51-88.43,49-86.08,53.09,1.36,2.36,95.58-58.71,97.1-56.06s-97.84,56.14-96.33,58.76c.37.65,104.54-64.95,106.53-61.5C338,314.87,226,367.65,228.59,372.17c2.89,5,109-70.45,112.28-64.83,1.66,2.87-113.56,63.5-111.78,66.59,2,3.41,115.64-73.28,118.46-68.39,1.31,2.27-118.89,70-117.13,73.07.64,1.11,131.33-83.84,134.8-77.83,1.53,2.65-138.19,72.71-134.37,79.31.51.88,139.24-82.13,140-80.83C374.18,305,228.1,377.8,232.26,385s153-97.74,157.08-90.69c.62,1.08-160.72,86.32-156,94.49.8,1.38,168.74-101.2,170.37-98.37s-174.21,92.32-170,99.56c4.29,7.42,173.27-103,174.54-100.77,4.58,7.93-176.9,99-173.23,105.39,1.76,3,186.12-118,190.69-110.09,1.55,2.69-193.56,107.29-189.46,114.4,2.24,3.88,201.82-125.56,205.74-118.78,3.78,6.55-209.89,112.21-205.39,120,.88,1.52,208.41-124.08,210-121.26,3.38,5.86-216,112.19-209.32,123.76,1.15,2,215.63-131.71,218.76-126.3C458.86,281.2,233.11,397.6,238.55,407c2.3,4,231.86-139,234.08-135.14C477.54,280.39,235.52,403.81,239.7,411,245.21,420.6,482,268.43,483.21,270.46c.91,1.58-247.31,135.62-242.6,143.76,3.51,6.08,234.18-147.7,239.6-138.33,2.4,4.15-241.21,136.52-239,140.27.72,1.25,231.13-147.49,237.21-137,6.61,11.45-241,132.31-236.16,140.63,3.88,6.71,229.24-140.29,232.68-134.34,2.53,4.38-238.57,124.91-232.24,135.88C249.36,433,470.31,282.75,473.43,288.14c7,12.08-236.75,124-230.16,135.41,3.53,6.12,226.35-134.73,228.11-131.7,5.7,9.88-228.72,132.53-227,135.47,1.05,1.83,220.39-134.33,223.46-129,6.82,11.82-225.82,127-222.3,133C247.63,435,461,300.08,464,305.21c2,3.5-219.13,126.79-217.49,129.63,4.48,7.76,211.62-128.1,214.18-123.66,5.1,8.84-217.91,119.16-213.08,127.54C254,449.79,456,316.11,457,317.82c2.41,4.17-211.65,118.39-208.62,123.64,3.14,5.44,205.28-120.26,206-119,4.52,7.82-206.66,118.63-205.6,120.47C250.17,445.31,449,318.3,453,325.11c2.94,5.09-206.07,116.4-203.12,121.49,2.23,3.87,197.07-119.85,199.7-115.29,4.26,7.37-204.35,109-198.68,118.86,3.94,6.83,189.73-122.39,195.3-112.75,3.87,6.71-195.71,114.29-194,117.23,3.69,6.39,184-119.61,189.78-109.57,1.39,2.42-194,103.51-189.06,112.08,1.38,2.4,181.89-116.09,186.69-107.78,3.26,5.64-191.23,101.2-186,110.31,1.78,3.09,177.83-115.93,183.57-106C441,360.43,253,460.48,254.61,463.25c2.48,4.29,178.28-105,179.17-103.45,4.28,7.41-179.86,103.86-178.26,106.63.56,1,174.74-102.06,175.25-101.18,5.45,9.44-175.44,101.84-174.69,103.15,3.5,6.06,170.67-103.52,172.83-99.78.87,1.5-176.88,95-171.53,104.31,1.19,2.05,162.46-104.85,167.25-96.56,3.37,5.83-171.14,90.56-166.83,98C260,478.22,418.7,371,423.24,378.87c4.11,7.11-168.13,91.54-165.07,96.84,5.09,8.81,161.45-98.66,163.81-94.58,4.9,8.48-164.85,94.64-162.76,98.25,1.26,2.19,157.29-95.4,159.28-92,2.93,5.08-161.84,89.61-158.1,96.1,2.38,4.12,152.14-92.55,154.18-89,4.78,8.27-154,91.23-153.12,92.73,3.5,6.06,145.86-92.84,149.59-86.37,2.14,3.71-150,87.59-148.54,90.06,2.43,4.2,142.87-87.5,145-83.74,2,3.43-147.73,79.7-144.69,85,2.54,4.41,140.41-88.25,143.52-82.86,2.53,4.38-143.16,85.74-142.24,87.33,3.65,6.32,134-86.6,138-79.68.68,1.17-140.83,76-137.35,82,3.8,6.58,134.61-78.94,135.14-78,4.07,7.05-137,76.5-134.22,81.26s128.7-80,131.15-75.72c4,7-133.56,73.17-130.24,78.92,2.32,4,126-75.54,127.21-73.44.84,1.45-128.12,74.17-125.9,78,2.55,4.42,118.69-75.2,121.58-70.19.72,1.25-121,73.74-120.17,75.11,1.1,1.9,114-69.35,115.52-66.69,3.61,6.25-117.32,64.54-115,68.58,2.55,4.42,111-69.16,113.19-65.35,2.34,4.05-114,64.62-112.77,66.81,2.4,4.16,110.14-66.48,111.39-64.31,2.57,4.45-112.85,62.88-110.78,66.47.64,1.11,105.36-68.64,108.74-62.78.94,1.63-110.75,61.47-107.52,67.06,3,5.27,102-62.2,103.46-59.74,2.72,4.72-104.23,60.75-102.14,64.39,1.76,3.05,96.6-58.38,97.73-56.42C373.59,477,271.06,526,274,531.14c1.51,2.62,94.36-57.15,95.51-55.14,1.41,2.44-95.94,56.52-94.32,59.32.95,1.64,89.06-54.43,90.36-52.17S275.41,536.53,275.67,537c.79,1.37,87-53.22,88.3-51,.58,1-89.73,49.68-87.64,53.3,1.14,2,84.65-50.71,85.45-49.33,1.42,2.46-85.79,50.7-84.33,53.23,2.08,3.6,79.86-47.91,80.64-46.56,1.28,2.22-79.83,50.2-79.38,51,1.36,2.36,74.25-45,75.19-43.41.31.54-76.34,42.18-74.76,44.93.45.77,71.8-45,73.33-42.34.55,1-72.82,45.21-72.19,46.3.47.82,66.47-42.94,68.44-39.51.27.46-68.21,41-67.82,41.68,1.91,3.31,64.4-40.34,65.77-38,.69,1.19-66.39,38.88-64.65,41.9,1.52,2.64,59.6-37.48,60.93-35.18.89,1.55-61.44,36.56-59.64,39.68,1.06,1.83,54.67-33.21,55.38-32,1,1.66-55.79,33.24-54.27,35.88.6,1,49.93-30.3,50.57-29.2,1.45,2.51-51.21,28.92-50.1,30.84.81,1.4,47.75-29.4,48.55-28,.48.82-49.27,27.6-48.08,29.66,1.37,2.37,45.5-28.66,46.54-26.87,1.48,2.57-45.85,30.18-45.34,31.06,1.26,2.19,40.57-25.28,41.37-23.89,1.23,2.14-40.54,27.13-40.35,27.46,1,1.78,36.72-21.8,37-21.35,1,1.67-37.33,21.46-36.56,22.8.41.72,34.79-21,35.19-20.32.77,1.33-35.29,21.83-34.24,23.65.83,1.43,30.55-18.86,31.08-17.94s-30.93,19.22-30.5,20c.34.59,28.15-17.28,28.6-16.51.63,1.09-27.81,20.26-27.24,21.25s22.2-14.09,22.75-13.13c.44.77-22.19,15.89-21.74,16.66.35.6,18.31-10.81,18.41-10.63.62,1.07-17.53,14.21-17.25,14.7s13-8.4,13.4-7.74c.23.4-12.92,9.7-12.76,10,.28.48,10.38-6.56,10.63-6.14.35.6-9.74,9.46-9.63,9.66s6.2-3.8,6.29-3.63-5.46,6.58-5.44,6.62a21.2,21.2,0,0,1,2.61-1.51c.08.13-2.37,2.5-2.29,2.63s1.21-.73,1.22-.71" transform="translate(-110 -110)"/><path class="cls-4" d="M346.47,373.38c0,.06,1.49-.94,1.52-.88s-1.31,5.12-1.21,5.3,5.59-3.38,5.66-3.27c.22.38-4.41,7.2-4.25,7.47,0,.07,6.89-4.2,7-4s-8,7.87-7.88,8.15,10.15-6.3,10.34-6c.31.53-11.22,7.57-11,8,.13.22,11.6-7.52,12-6.9s-12.8,8.65-12.74,8.75c.21.37,13.38-7.85,13.43-7.75.4.69-15,10.73-14.95,10.86.42.73,15.15-9.89,15.64-9,.32.55-23.13,17.09-22.51,18.15s19.4-12.53,20-11.53" transform="translate(-110 -110)"/><path class="cls-4" d="M307.44,382.62c.44.77,15.85-10.13,16.28-9.4.27.46-11.38,9.43-11.06,10,.18.31,12.12-7.69,12.42-7.17s-8.91,9.12-8.6,9.66c.12.21,11.49-6.77,11.55-6.67.31.54-10,7.76-9.72,8.29.1.17,10.53-6.84,10.86-6.27s-9.34,7.89-9.11,8.29c.08.15,10.41-6.15,10.47-6,.31.54-8.67,8.51-8.61,8.62.15.26,9.53-6.13,9.8-5.66,0,.08-9.18,6.57-9.08,6.74s8.83-5.39,9-5.17-7.3,8.17-7.24,8.27,6.33-4,6.49-3.75c0,.06-6.14,4.58-6,4.76s6.18-3.86,6.31-3.64c.22.39-4.62,8-4.47,8.23s5.14-3.11,5.2-3c.16.28-4.58,5.25-4.44,5.49s4.87-3.11,5-2.89-4.77,4.08-4.6,4.38c0,.08,5-3.07,5.1-2.94s-4.67,6.41-4.59,6.55,6.28-3.82,6.36-3.67-6.4,7.38-6.28,7.6c.23.4,21.31-13.32,21.75-12.56.17.29-22.35,13.15-21.72,14.24.36.62,19.64-11.76,19.82-11.44.54.93-20.11,13.58-19.58,14.49.24.42,17.51-10.55,17.71-10.22.53.92-18.11,11.42-17.74,12.06s17.36-11.06,17.81-10.28c.59,1-18.4,12.41-17.9,13.28.32.56,12.07-7.32,12.22-7.06s-10.88,10.07-10.67,10.45,8.11-5.07,8.28-4.78-6.9,6.08-6.68,6.45,4.23-2.51,4.26-2.46" transform="translate(-110 -110)"/><path class="cls-4" d="M296.27,376c.35.61,11-7.16,11.36-6.56.52.9-16.19,10.85-15.7,11.7s21.23-12.66,21.41-12.36c.63,1.09-24.66,18.28-24.52,18.52.44.77,28.76-18.34,29.51-17,.65,1.13-30,18.37-29.7,18.92.86,1.49,31.08-18.91,31.5-18.19.7,1.22-31,20.55-30.2,21.89.06.1,10.13-6.11,10.24-5.91.28.49-9.82,6.79-9.75,6.91s9.16-5.78,9.37-5.41-7.51,9.36-7.36,9.63,5.88-3.74,6-3.48-5.19,5.75-5.07,5.95,6.28-3.93,6.41-3.7-2.48,6.1-2.38,6.28,3.57-2.32,3.68-2.12" transform="translate(-110 -110)"/><path class="cls-3" d="M212.14,351s.88-.57.91-.53-1,3-.91,3.16,1.54-.92,1.56-.9c.11.2-1.58,5.22-1.56,5.26s2.56-1.63,2.63-1.52-2.67,3.22-2.63,3.29,3-1.84,3.06-1.77c.13.23-3.21,6-3.06,6.22,0,0,4.11-2.48,4.16-2.4s-4.19,3.62-4.16,3.68,4.37-2.76,4.47-2.58-4.59,7.76-4.47,8,5.65-3.6,5.79-3.34-5.92,6.15-5.79,6.36,6.4-4,6.53-3.77c.26.44-6.69,8.4-6.53,8.67s7.5-4.87,7.74-4.47c0,.06-8,7.42-7.74,7.86.12.21,8.43-5.18,8.57-4.95s-8.73,7.81-8.57,8.09c0,.06,9.17-5.69,9.34-5.39.32.56-9.59,6.88-9.34,7.31s9.53-6.16,9.81-5.66c.16.28-10,7.43-9.81,7.72s10.07-6.38,10.32-6c.15.25-10.51,11.06-10.32,11.4.06.1,11.35-7.25,11.65-6.73.14.24-12,7.85-11.65,8.46,0,.08,12-7.09,12.08-7,.36.62-12.52,11.89-12.08,12.67.36.62,13.13-8.38,13.48-7.78.06.11-13.95,11.39-13.48,12.21.07.12,14.42-8.65,14.56-8.41s-14.93,9.15-14.56,9.8,14.79-8.79,14.9-8.6c.46.8-15.27,13.34-14.9,14,.15.26,15.84-10,16.22-9.37.15.26-16.63,13.69-16.22,14.38.19.33,17.12-10.65,17.46-10.08s-17.85,10.82-17.46,11.51c.07.13,17.67-10.52,17.81-10.28.31.53-18.41,12.13-17.81,13.19.1.17,18.26-11.15,18.52-10.69s-19,14.89-18.52,15.8c.19.34,19.59-11.74,19.77-11.42.46.8-20.17,15.44-19.77,16.12s20.83-12.26,20.93-12.08-21.36,15-20.93,15.78c.32.55,21.34-13.46,21.84-12.61.23.4-22,14.51-21.84,14.86.07.12,21.81-13.92,22.39-12.93.68,1.18-22.88,16.35-22.39,17.21.39.68,23.09-14.13,23.44-13.53s-24.1,14.19-23.44,15.33S235.7,430.28,236,430.84c.76,1.31-24.59,15.08-23.88,16.31.38.66,24.31-14.47,24.5-14.15.66,1.15-24.7,18.2-24.5,18.54s25.23-15.38,25.58-14.77c.85,1.47-26,18.71-25.58,19.47.26.45,26.37-16.06,26.73-15.43.26.46-26.95,19.13-26.73,19.5.58,1,27.4-16.59,27.73-16,.71,1.23-28.4,19.36-27.73,20.53.88,1.52,28.7-16.89,28.84-16.65.35.6-29.28,19.08-28.84,19.84s29.51-17.29,29.62-17.1c.67,1.15-29.78,18.6-29.62,18.87s29.48-18.36,30.06-17.35c.46.8-30.52,20.78-30.06,21.57.35.6,30.68-18.66,31.09-18,.7,1.21-32,20.49-31.09,22.11.65,1.12,31.2-20.13,32.11-18.54.68,1.18-32.41,23.24-32.11,23.76.65,1.12,32.37-21,33.39-19.28.25.44-34.3,20.64-33.39,22.2.25.44,33.23-21.21,34.11-19.69.62,1.07-35.11,20.91-34.11,22.64.34.59,33.74-22,34.83-20.11.77,1.34-35.15,23.72-34.83,24.27.5.86,35.68-21,35.85-20.7.89,1.55-36.19,23.83-35.85,24.41.12.2,36.66-21.41,36.76-21.23,1.17,2-36.93,23.23-36.76,23.52.76,1.31,36.86-22.36,37.33-21.55.2.34-38.55,24.7-37.33,26.82.27.47,37.52-24.21,38.62-22.3.79,1.37-39.63,22.25-38.62,24,.52.9,38-24.39,39-22.54s-39.77,22.81-39,24.08c1.22,2.12,38.85-23.74,39.42-22.76,1.23,2.13-39.94,26.13-39.42,27,.32.56,40-24.24,40.47-23.37.78,1.35-41.47,26.46-40.47,28.19.64,1.11,41.1-25,41.65-24,1.35,2.33-41.9,28-41.65,28.38,1,1.73,41.65-26.51,42.72-24.66.64,1.1-43.14,28.23-42.72,29,.73,1.27,43.12-26.41,43.77-25.27s-44.7,25.1-43.77,26.71c.78,1.36,43.17-27.13,44.13-25.48.81,1.41-44.42,30.17-44.13,30.68,1.2,2.08,44.09-28.49,45.4-26.21.23.39-46.57,26.9-45.4,28.93,1.3,2.24,45.89-26.91,46.07-26.6,1.43,2.48-47,28.69-46.07,30.37s46.12-28.66,47-27.13c1.49,2.59-48.22,28.74-47,30.86.87,1.51,47.46-28.45,47.91-27.66.33.57-48.78,31.47-47.91,33,1,1.79,48-30.44,49.22-28.42.31.53-49.55,33.56-49.22,34.14.48.83,50-30.39,50.62-29.23,1.61,2.78-51.66,29.63-50.62,31.43,1.15,2,50.17-31.26,51.16-29.54s-51.74,30.24-51.16,31.24c1.11,1.93,51-30.78,51.58-29.78,1.21,2.1-52.56,30.6-51.58,32.29.31.53,50.57-32.95,52.2-30.14.47.81-53.8,32.34-52.2,35.12s52.68-32.12,53.42-30.84c1.46,2.52-54.54,34.32-53.42,36.26,1,1.71,54.12-32.71,54.75-31.61,1.34,2.33-56.42,30.82-54.75,33.71.87,1.51,54.6-33.07,55.27-31.91.84,1.45-56.23,35.11-55.27,36.78.59,1,55.64-34,56.46-32.6S212,579,212.14,579.3c.51.88,56.11-34.32,56.94-32.87.38.66-58.3,33.21-56.94,35.57.77,1.34,57.06-34.18,57.6-33.26,1,1.7-58.61,36-57.6,37.8,1.51,2.62,58.15-34.88,58.72-33.9,1,1.66-59.05,38.47-58.72,39,1.08,1.88,59.23-35.93,60-34.63.25.43-61.25,34.19-60,36.39.37.64,59.15-37.07,60.41-34.88.46.8-60.94,38.58-60.41,39.5.42.73,59.77-38.61,61.55-35.53.24.42-61.9,37.45-61.55,38.06,1.8,3.12,60.87-38.13,62.17-35.89.66,1.15-63.84,37.56-62.17,40.47,1.58,2.74,61.91-38.93,63.29-36.54.95,1.64-65.19,38.48-63.29,41.78,1.23,2.13,63.74-38.73,64.58-37.28,1.13,2-66.38,38.71-64.58,41.83.78,1.36,64.86-39.37,65.69-37.93,1.89,3.28-67.14,37.33-65.69,39.84,1.1,1.9,65.08-40.07,66.16-38.2.65,1.13-67.79,37.28-66.16,40.1,2,3.39,65.14-41,66.63-38.47,2.14,3.71-67.36,42.08-66.63,43.35,2.07,3.58,66.5-41.45,67.83-39.16,2,3.53-68.14,42.78-67.83,43.32,1.92,3.32,68.36-40.59,68.85-39.75,1.8,3.12-70.28,38.95-68.85,41.44.82,1.41,68.47-41.35,69.26-40,1.52,2.62-71.33,40.29-69.26,43.87,1.87,3.24,69-42.6,70.21-40.54s-71.18,41.21-70.21,42.89c.84,1.46,69.7-42.77,70.79-40.87,1.54,2.67-72.19,44-70.79,46.4,2,3.52,70.4-44.69,72.15-41.65,1.38,2.39-73.52,43.37-72.15,45.76s72.75-42.94,73.15-42.24c2.37,4.11-74.24,45.1-73.15,47s72.19-46.59,74.32-42.91c1.23,2.14-75.19,44-74.32,45.52,1.95,3.37,73.23-46.28,75-43.28,2.26,3.92-75.7,46.09-75,47.38C213.83,659.74,286.86,611,288,613c1,1.77-76.14,45-75.89,45.43s73.52-47.85,75.86-43.8" transform="translate(-110 -110)"/><path class="cls-4" d="M246.81,583.93c.41.72,17.48-11,17.86-10.31.12.21-9.11,9.29-8.87,9.71.07.11,10.36-6.27,10.48-6.05s-1.61,5.68-1.5,5.88c0,0,3.23-2,3.27-1.89s-1.53,4.33-1.47,4.44,2.77-1.72,2.82-1.63-2.2,2.75-2.14,2.85,2.67-1.73,2.75-1.59a26.35,26.35,0,0,1-2.2,2.67c0,.08,2.71-1.59,2.72-1.57s-1.84,3.25-1.83,3.28,2.76-1.8,2.85-1.65-.5,5.18-.39,5.38,1.56-1,1.6-.93" transform="translate(-110 -110)"/><path class="cls-4" d="M256.8,561.64c0,.07,1.55-1,1.59-.92s-1.52,4.26-1.42,4.43,3.15-2,3.23-1.86-2.48,5.76-2.32,6c0,.07,4-2.38,4.05-2.34.13.22-3.69,3.54-3.56,3.75s4.06-2.64,4.19-2.42" transform="translate(-110 -110)"/><path class="cls-4" d="M231,566c.05.09,1.59-1,1.64-.95s-.92,3-.84,3.12,2.54-1.52,2.56-1.48-.81,4.78-.79,4.82,2.93-1.87,3-1.74-2.24,3-2.21,3,3-1.82,3-1.75-1,4.77-.87,5,4.22-2.55,4.27-2.47-3.76,3.39-3.73,3.44,5.43-3.43,5.56-3.21-3.77,7.31-3.66,7.49,14-8.92,14.37-8.3S239.8,583.2,240,583.63c.7,1.21,22.76-14.25,23.24-13.42.65,1.13-21.86,16.58-21.45,17.29.07.13,3.52-2.29,3.63-2.1,0,0-2.63,4.62-2.5,4.84,0,.07,2.7-1.66,2.75-1.59s-1.64,4-1.58,4.05,2.33-1.45,2.37-1.37-1.51,2.64-1.44,2.75,1.83-1.18,1.88-1.09" transform="translate(-110 -110)"/><path class="cls-4" d="M218.77,528.78c.13.23,5.51-3.46,5.63-3.25s-6.44,7.88-6.25,8.21c.07.13,11.74-7.1,11.88-6.86.4.69-10.9,10.65-10.62,11.14.09.15,14.48-8.84,14.69-8.48.1.17-13.52,10.84-13.28,11.26.09.15,4.3-2.67,4.38-2.53s-3.65,3.53-3.57,3.67,3.81-2.47,3.93-2.27-3.29,3.26-3.28,3.29,3.74-2.19,3.75-2.17-2.75,3.77-2.73,3.8,3.79-2.47,3.91-2.26-.72,5.3-.61,5.5,3.38-2.18,3.48-2-1.57,3.07-1.52,3.15,3.56-2.13,3.59-2.07-.85,3.69-.82,3.74,3.32-2,3.35-1.93-1.38,3.08-1.3,3.23a21.08,21.08,0,0,0,2.31-1.34" transform="translate(-110 -110)"/><path class="cls-4" d="M229.46,533.91c.15.26,5.46-3.49,5.6-3.24s-1.05,4-1,4.17,3.6-2.29,3.69-2.13.69,4.05.79,4.23,2.86-1.69,2.88-1.66-.74,2.94-.66,3.07,6.52-4.23,6.72-3.88-4.6,5.38-4.47,5.61c0,.07,5.24-3.1,5.27-3,.15.27-2.94,5.28-2.91,5.33s4.58-2.95,4.71-2.72c0,0-3.84,3.61-3.8,3.68s4.35-2.65,4.41-2.54-1.84,5.08-1.81,5.14,3.36-2.14,3.45-2-2.76,2.75-2.71,2.84,3.14-2,3.2-1.85-.25,4.4-.17,4.53,1.63-1,1.65-1" transform="translate(-110 -110)"/><path class="cls-4" d="M229.6,516.2c.1.18,3.18-2.07,3.28-1.9s-1.33,3.19-1.24,3.35,5.74-3.42,5.79-3.34-2.34,5.65-2.31,5.7,4.25-2.71,4.36-2.52-3.49,3.68-3.44,3.76,4.2-2.55,4.25-2.46-2.38,5.53-2.25,5.75c0,0,4.07-2.46,4.12-2.38s-3.61,3.3-3.58,3.35,3.86-2.44,4-2.28-2,6.31-1.88,6.46,3.21-2,3.29-1.9-2.54,4.32-2.47,4.45,3.68-2.3,3.75-2.17-2.71,4.52-2.63,4.65,4.18-2.72,4.31-2.49" transform="translate(-110 -110)"/><path class="cls-3" d="M216.87,667.42c2.31,4,71.77-46.67,74-42.74s-73.88,40.4-71.76,44.06c1.73,3,74.64-44.5,75.25-43.44,1.74,3-71.87,45-71.48,45.63,1.11,1.93,72.53-46.25,74.43-43,1.57,2.72-73.66,42.54-72.9,43.86,2,3.51,73-44.41,74-42.71,1.57,2.71-71.86,42-70.13,44.94.4.7,72-43.44,72.85-42.06,2,3.4-72.25,41.82-71.74,42.7,1.09,1.88,70.88-44.71,72.52-41.87.94,1.63-68.92,42.75-67.88,44.57.86,1.5,69.37-44.18,71.15-41.08,1.68,2.91-69.73,40.55-68.55,42.6,2.12,3.66,68.93-43.16,70.39-40.64,1.86,3.23-67.32,41.08-66.15,43.1,1.42,2.46,67-43.55,69.14-39.92.23.39-68,38.47-66.21,41.62,1,1.66,67.2-41.28,68.28-39.42s-66.6,39.2-65.57,41c.24.41,66.22-41.14,67.48-39,2.11,3.65-67.45,37.1-65.82,39.92,1.72,3,65.06-42,67-38.68,1,1.68-66.26,37.9-65.21,39.71s64.89-41.12,66.47-38.38c.71,1.22-62.72,39.46-61.77,41.11.31.54,63.41-40.48,65.09-37.58.73,1.26-65.41,35.3-63.59,38.45.23.41,64.3-37.93,64.65-37.32,1.47,2.55-61.56,37-59.73,40.18,1.67,2.9,61.56-39.32,63.2-36.49.24.42-61.21,35.53-59.38,38.71.29.5,61.48-36.87,62.08-35.84S264.6,693.4,266.1,696s61.27-36.42,61.72-35.64c1.55,2.69-58.32,36.17-57.08,38.33.56,1,58.91-37.35,60.36-34.85.47.82-57.27,35.2-56,37.36.64,1.11,58-36.06,59.08-34.11S275,699.72,276.31,701.94c.25.43,58.26-34.69,58.72-33.9.92,1.6-58,32.2-56.21,35.36.3.53,57.15-34.91,58-33.47.71,1.24-55,33.64-53.57,36,.56,1,56.15-33.66,56.68-32.73,1.15,2-53.6,33.4-52.62,35.08,1.26,2.18,55.22-32.5,55.49-32s-53.34,32.09-52.3,33.89c.8,1.38,53.32-33.63,54.55-31.5.54.93-53.09,31.79-52.6,32.63.16.28,52.6-33.56,54-31.17s-51.33,31.49-50.28,33.31C297,715,348.24,681.56,349,682.91c.57,1-52.76,29-51.34,31.44,1.52,2.64,51.73-31.5,52.44-30.27,1.55,2.68-51.72,29-50.26,31.54.8,1.39,51.4-30.59,51.8-29.9,1.25,2.16-48.37,31.47-48,32.11.24.41,50-30.47,50.68-29.26,1.48,2.57-47.39,30.29-46.62,31.62.48.83,48.82-29.73,49.49-28.57.44.76-46.34,30-46,30.61,1,1.76,47.88-29,48.46-28,1.11,1.92-45.6,28.42-44.56,30.24,1.44,2.5,47.09-27.7,47.31-27.31.53.91-45.22,27.76-44.56,28.91s46.33-27.14,46.5-26.85c1,1.73-45.21,27.33-45,27.73s45.16-28.12,46.05-26.59c.64,1.1-43,27.6-42.41,28.7.5.87,44.39-27,45-26,.92,1.59-42.61,25.93-41.39,28.05.89,1.54,42.67-27.53,43.92-25.36.83,1.43-39.78,27.35-39.42,28,.83,1.44,41.3-26.85,42.6-24.6.3.53-41.15,24.2-40.08,26.06.31.54,40.78-26,41.86-24.17.71,1.22-40.46,23.66-39.32,25.64.4.69,39.82-26,41.11-23.74.83,1.44-37.86,25.23-37.52,25.82.55,1,39.86-23.47,40.06-23.13.92,1.59-37.2,24.39-36.85,25,.13.22,39-22.78,39.11-22.58,1.18,2.05-37.3,23.45-37.14,23.73.78,1.35,38.05-23.08,38.53-22.25.18.31-35.1,22.95-34,24.89.26.46,36.13-23.32,37.2-21.48.73,1.27-36.66,20.71-35.72,22.33.49.85,35.75-23,36.76-21.22.9,1.55-36.1,20.84-35.43,22,1.13,2,35.85-21.9,36.37-21,1,1.79-33.11,22.38-32.67,23.15.28.48,34.84-21.13,35.28-20.37.61,1.06-31.9,21.44-31.12,22.79.53.91,33.61-20.45,34.06-19.66,1,1.73-30.5,21.52-30.32,21.84.77,1.34,32.14-20.46,33-19,.44.77-29.54,20.67-29.24,21.19.53.92,31.39-19.22,31.87-18.4s-31.28,18-30.63,19.12c.56,1,30.82-19.37,31.5-18.19.52.89-27.2,20.47-27,20.8.8,1.38,29.31-18.94,30.18-17.43.14.25-28.57,17.52-27.84,18.79.83,1.44,29.38-17.23,29.49-17,.84,1.45-26.8,17.94-26.24,18.92s28-17.4,28.54-16.48c.83,1.44-26,17.16-25.32,18.34.5.87,27.33-16.38,27.59-15.93.17.29-23.44,17.83-23,18.6.55,1,25.61-16.23,26.24-15.15.14.25-21.45,17.75-21.29,18s24.46-14.88,24.79-14.31c.74,1.29-23.37,14.58-22.88,15.41s23.76-14.8,24.23-14-23,14.39-22.76,14.84c.51.89,23.53-14.2,23.8-13.74.52.91-22.05,14.27-21.63,15,.14.24,22.44-14.62,23.16-13.37.18.32-19.48,14.78-18.85,15.87s21.59-13.16,21.89-12.64c.52.9-17.61,14.66-17.21,15.36s20.28-12.26,20.52-11.85c.48.82-19.3,11.88-18.71,12.9.32.55,19.74-12,20-11.54s-16.09,13.45-15.78,14c.2.34,18.48-11.29,18.75-10.83s-17.12,11.71-17.07,11.8c.16.28,18-11,18.26-10.54.11.2-16.33,11.19-15.92,11.89.24.41,17.41-10.43,17.57-10.14.26.45-13.92,12-13.65,12.42.42.73,16.26-9.75,16.42-9.48s-12.05,11.92-12,12.06c.27.47,14.92-9.05,15.11-8.72.06.1-13.89,9.08-13.59,9.61.09.15,14.36-9,14.66-8.47.1.17-10.79,10.59-10.67,10.78s13.1-8.46,13.49-7.79c0,.08-11.38,8.93-11.31,9.06.37.65,12.58-7.88,12.85-7.42.12.2-9.2,9.2-8.9,9.71s11.43-7.19,11.69-6.75c.15.25-7.46,8.86-7.16,9.38.2.34,10.22-6.21,10.36-6s-6.67,7.84-6.43,8.26c.11.19,9.09-5.51,9.2-5.31.24.42-7.74,6-7.55,6.27s8.58-5.28,8.72-5-7.27,5.65-7.08,6,8.05-5.07,8.24-4.75-4.1,7.07-4,7.2c.21.37,6.86-4.28,7-4s-3.43,6.08-3.41,6.12c.17.29,5.9-3.5,5.94-3.43.14.24-4.6,4.09-4.49,4.28s5.45-3.29,5.52-3.18-2.3,4.89-2.16,5.13,4.46-2.75,4.54-2.62-2.56,3.7-2.51,3.8,3.88-2.38,3.94-2.28.74,4.9.83,5,2.48-1.58,2.55-1.47.94,3.42,1,3.53,1.5-.89,1.51-.87l1.46,2.6s.62-.4.64-.37" transform="translate(-110 -110)"/><path class="cls-4" d="M351.62,714.87c.06.11,3.31-2,3.37-1.94s.82,4.92.9,5.06,2.45-1.58,2.52-1.46.77,4.75.84,4.86,2.06-1.3,2.11-1.22-.38,2.6-.37,2.62a11.72,11.72,0,0,0,1.26-.73" transform="translate(-110 -110)"/><path class="cls-4" d="M320.06,709.18c0,.06,1.48-.93,1.52-.88s.94,3.88,1,4,2.51-1.52,2.54-1.46c.12.21.59,4.48.67,4.63s2.9-1.77,2.94-1.7-.45,3.73-.4,3.83c.4.69,19.91-12.35,20.28-11.71.52.9-19.6,12.05-19.22,12.71.21.37,19.57-12.68,20.17-11.65s-19.36,12.37-19.27,12.53c.32.56,20-11.75,20.1-11.6.49.85-18.86,12.9-18.77,13.06.54.93,19.45-12.69,20.08-11.59.25.43-17.65,14.23-17.17,15.07s13.65-8.81,14.05-8.11c.16.28-13,9.29-12.76,9.63.06.1,3.87-2.32,3.91-2.26s-1.94,4.3-1.9,4.37,2.92-1.74,2.95-1.7-1.55,3.37-1.45,3.54a23.09,23.09,0,0,0,2.53-1.46c0,.07-1.72,2.45-1.69,2.5s2.27-1.46,2.33-1.35.86,5.17.89,5.22,1.9-1.24,2-1.13-.35,2.63-.31,2.68,1.32-.81,1.34-.77" transform="translate(-110 -110)"/><path class="cls-4" d="M337.19,696.25c0,.08,1.43-.93,1.47-.85s-.62,2.81-.54,2.94,2.37-1.41,2.38-1.38-.62,4.67-.6,4.71,3.23-2.06,3.31-1.91-2.44,3.1-2.41,3.16,3.46-2.11,3.51-2-2,5.32-1.87,5.53c0,0,4.34-2.62,4.39-2.53" transform="translate(-110 -110)"/><path class="cls-4" d="M301.72,669.27c.11.2,4-2.59,4.16-2.4s.74,3,.81,3.15,3-1.93,3.12-1.8,1.29,3.71,1.39,3.89,2.51-1.48,2.52-1.46-.86,3-.78,3.13a27.82,27.82,0,0,1,2.64-1.52c.07.13-.91,3.4-.84,3.52s2.81-1.66,2.83-1.63c.11.19-.86,4.1-.84,4.14s2.83-1.82,2.91-1.68-2.17,2.67-2.14,2.73,2.83-1.73,2.87-1.66-1.25,4.75-1.22,4.79,2.68-1.7,2.75-1.59-2.58,2.65-2.53,2.74,2.88-1.8,2.94-1.7c.18.31-3.53,6.55-3.41,6.76s4.69-2.83,4.74-2.74" transform="translate(-110 -110)"/><path class="cls-4" d="M291.1,670.72c.22.37,6.7-4.36,6.91-4s-6.88,6.07-6.65,6.47,11.75-7,11.84-6.84c.34.58-12,11.14-12,11.27s3.32-2.11,3.4-2-3,3.42-3,3.49,3.23-2,3.27-1.89-1.61,5.11-1.49,5.31c0,0,2.93-1.77,3-1.71s-2.19,2.5-2.17,2.54,2.83-1.79,2.9-1.67,1,4.67,1,4.78,2.07-1.32,2.12-1.23-.28,3.07-.23,3.15,2.35-1.47,2.39-1.38,1.73,3.76,1.8,3.87,2.67-1.73,2.75-1.59.36,3,.43,3.15,3.49-2.14,3.55-2-.26,3.19-.22,3.27,4.62-2.87,4.71-2.72-2.23,3-2.15,3.16c.27.47,10.33-6.67,10.64-6.14.13.22-7.94,6.32-7.8,6.56s7.37-4.67,7.55-4.36" transform="translate(-110 -110)"/></svg>