<svg xmlns="http://www.w3.org/2000/svg" viewBox="0 0 386.05 439.22"><g id="Layer_2" data-name="Layer 2"><g id="Layer_1-2" data-name="Layer 1"><path d="M44.22,437.15c-7.43,3.66-15.31,1.33-22.95,1.45-5.18.09-2.53-3.49-1.72-6.14a476.88,476.88,0,0,1,20.84-55.38c6-13.57,12.44-27,17.86-40.82,3.64-9.29,3-19.64,4.65-29.43,2.18-12.73,8-24.56,8.36-37.57.27-9,3.35-18.27-2.45-26.72-6.19-2.1-7.72,4.37-9,6.86-6,11.64-16.33,20.19-22.06,31.91a30.61,30.61,0,0,1-3,5.25c-2.1,2.87-3,6.23-4,9.57-2.39,6.75-5.6,13.21-4.76,20.81.29,2.68-.66,6.28-4.43,6.27-3.19,0-4-2.79-4-5.63-.05-2,.25-4.48-2.76-4.31s-2.5,2.69-2.48,4.63c.05,4-.34,8.07.34,12.09.35,2.1.21,4.26-2.06,5.13-2.81,1.09-4.46-1.07-5.45-3.07-3.46-7-6.75-14.16-4.16-22.26.91-2.85,1.42-5.54.19-8.36,4.34-11.83,10-23.05,12.14-35.85,1.2-7.17,6.71-13.69,13.45-18,2.51-1.6,6-3.84,3.62-6.45-5-5.5-.59-7.68,2.48-10.73.8-.8,2.14-2.2,1.9-2.74-4.62-10.36,7.34-11.66,9.78-18.09-1.07-8.1,5.85-13.51,7-20.85,1.53-5.06,4.24-10.1,4.36-15.19.28-12.3,9.15-16,18-20.21,10.26-4.91,22.79-3.51,32-11.77,2.49-2.24,7.61-3.55,5.9-7.22-2.24-4.82-2.38-11.83-9-13.6-7-1.9-7.75-5.86-5-11.62,3.45-7.18,3.37-15.39,10.23-21.78,8.9-8.28,23.94-11.83,34.76-5.19a8.73,8.73,0,0,0,2.51.64C159,86.87,169.63,102.24,168,115.62c-.47,4-4,5.19-6.53,7.29-7.07,5.79-7.79,11.06-2.69,19.05,1.39.43,2.86,2,3.94,1.61,10.9-3.72,18.3,4,27.21,7.44,12,4.69,17.48,10.67,14,24.49-2.63,10.49,2,21.57,1.29,32.61-.28,4.5,2.55,9.31,5.53,13.35,5.55,7.54,7.28,16.47,10,25.25,4.06,13.37,8,26.92,13.93,39.68,1.86,4,3.31,8,2.19,12.5-.92,3.74,1.57,6.48,3,9.62,3.41,7.48,4.94,15.17.85,23.06-1.91,3.66-5.17,4.64-8.72,4.37-6.91-.53-13.48-10.3-12.21-17.64,4.79-8.73-3.13-12.26-7.14-17.39-1.67-3-2.27-6.49-4.51-9.18-.42-.49-.83-1-1.25-1.43-1.32-.72-1.05.37-1.09,1.09.19.68.31,1.33.44,2,.55,5.53,2.69,10.59,4.41,15.76a15,15,0,0,1,.67,2.29,36.39,36.39,0,0,0,4.26,15.82,2.77,2.77,0,0,1-.47,2.26c4.35,20.65,12.59,39.62,23.95,57.42,3.56,5.59,7,11.71,8,18.5-14.24-2.6-28.3-1.7-42.17-.55-8.74.73-17.37,3.15-26.28,3.21-7.63.06-10.21,3.6-6.13,10s5.11,13.28,7,20.77c-25.07,0-49.86.06-74.64,0-5.61,0-7.46-4.67-3.46-11,4.74-7.51-.09-8.78-5.41-9.1-4.35-.25-9.08-1.67-13.23,1.26-2,7.1-6.47,10.35-13.94,9.63-2.84-.28-5.72-.51-8.55-.55C53.53,428.88,47,429.49,44.22,437.15Z"/><circle cx="181.33" cy="179.95" r="20.5"/><circle cx="181.33" cy="179.94" r="20.45"/><circle cx="181.32" cy="179.89" r="20.41"/><circle cx="181.32" cy="179.81" r="20.36"/><circle cx="181.31" cy="179.7" r="20.31"/><circle cx="181.31" cy="179.55" r="20.27"/><circle cx="181.3" cy="179.38" r="20.22"/><circle cx="181.29" cy="179.18" r="20.17"/><circle cx="181.28" cy="178.95" r="20.13"/><circle cx="181.28" cy="178.69" r="20.08"/><circle cx="181.27" cy="178.4" r="20.03"/><circle cx="181.26" cy="178.08" r="19.99"/><circle cx="181.25" cy="177.74" r="19.94"/><circle cx="181.24" cy="177.37" r="19.89"/><circle cx="181.24" cy="176.97" r="19.85"/><circle cx="181.23" cy="176.55" r="19.8"/><circle cx="181.23" cy="176.1" r="19.75"/><circle cx="181.22" cy="175.63" r="19.71"/><circle cx="181.22" cy="175.14" r="19.66"/><circle cx="181.22" cy="174.62" r="19.61"/><circle cx="181.23" cy="174.07" r="19.57"/><circle cx="181.23" cy="173.51" r="19.52"/><circle cx="181.24" cy="172.92" r="19.48"/><circle cx="181.25" cy="172.31" r="19.43"/><circle cx="181.26" cy="171.68" r="19.38"/><circle cx="181.28" cy="171.03" r="19.34"/><circle cx="181.3" cy="170.35" r="19.29"/><circle cx="181.32" cy="169.66" r="19.24"/><circle cx="181.35" cy="168.95" r="19.2"/><circle cx="181.38" cy="168.22" r="19.15"/><circle cx="181.41" cy="167.47" r="19.1"/><circle cx="181.45" cy="166.71" r="19.06"/><circle cx="181.49" cy="165.92" r="19.01"/><circle cx="181.54" cy="165.12" r="18.96"/><circle cx="181.59" cy="164.31" r="18.92"/><circle cx="181.65" cy="163.47" r="18.87"/><circle cx="181.72" cy="162.63" r="18.82"/><circle cx="181.78" cy="161.76" r="18.78"/><circle cx="181.86" cy="160.89" r="18.73"/><circle cx="181.94" cy="160" r="18.68"/><circle cx="182.03" cy="159.1" r="18.64"/><circle cx="182.12" cy="158.18" r="18.59"/><circle cx="182.22" cy="157.25" r="18.54"/><circle cx="182.33" cy="156.31" r="18.5"/><circle cx="182.44" cy="155.36" r="18.45"/><circle cx="182.56" cy="154.4" r="18.4"/><circle cx="182.69" cy="153.42" r="18.36"/><circle cx="182.83" cy="152.44" r="18.31"/><circle cx="182.97" cy="151.45" r="18.26"/><circle cx="183.13" cy="150.45" r="18.22"/><circle cx="183.29" cy="149.44" r="18.17"/><circle cx="183.46" cy="148.43" r="18.12"/><circle cx="183.63" cy="147.4" r="18.08"/><circle cx="183.82" cy="146.37" r="18.03"/><circle cx="184.02" cy="145.34" r="17.98"/><circle cx="184.22" cy="144.29" r="17.94"/><circle cx="184.44" cy="143.25" r="17.89"/><circle cx="184.66" cy="142.19" r="17.84"/><circle cx="184.89" cy="141.14" r="17.8"/><circle cx="185.14" cy="140.08" r="17.75"/><circle cx="185.39" cy="139.01" r="17.7"/><circle cx="185.66" cy="137.95" r="17.66"/><circle cx="185.93" cy="136.88" r="17.61"/><circle cx="186.22" cy="135.81" r="17.56"/><circle cx="186.52" cy="134.73" r="17.52"/><circle cx="186.83" cy="133.66" r="17.47"/><circle cx="187.15" cy="132.59" r="17.43"/><circle cx="187.48" cy="131.52" r="17.38"/><circle cx="187.83" cy="130.44" r="17.33"/><circle cx="188.19" cy="129.37" r="17.29"/><circle cx="188.56" cy="128.3" r="17.24"/><circle cx="188.94" cy="127.24" r="17.19"/><circle cx="189.33" cy="126.17" r="17.15"/><circle cx="189.74" cy="125.11" r="17.1"/><circle cx="190.16" cy="124.05" r="17.05"/><circle cx="190.6" cy="123" r="17.01"/><circle cx="191.05" cy="121.95" r="16.96"/><circle cx="191.51" cy="120.91" r="16.91"/><circle cx="191.98" cy="119.87" r="16.87"/><circle cx="192.48" cy="118.84" r="16.82"/><circle cx="192.98" cy="117.82" r="16.77"/><circle cx="193.5" cy="116.8" r="16.73"/><circle cx="194.04" cy="115.79" r="16.68"/><circle cx="194.59" cy="114.79" r="16.63"/><circle cx="195.15" cy="113.8" r="16.59"/><circle cx="195.73" cy="112.81" r="16.54"/><circle cx="196.33" cy="111.84" r="16.49"/><circle cx="196.94" cy="110.87" r="16.45"/><circle cx="197.57" cy="109.92" r="16.4"/><circle cx="198.21" cy="108.98" r="16.35"/><circle cx="198.88" cy="108.05" r="16.31"/><circle cx="199.55" cy="107.13" r="16.26"/><circle cx="200.25" cy="106.23" r="16.21"/><circle cx="200.96" cy="105.33" r="16.17"/><circle cx="201.69" cy="104.46" r="16.12"/><circle cx="202.44" cy="103.59" r="16.07"/><circle cx="203.2" cy="102.74" r="16.03"/><circle cx="203.99" cy="101.91" r="15.98"/><circle cx="204.79" cy="101.09" r="15.93"/><circle cx="205.61" cy="100.29" r="15.89"/><circle cx="206.45" cy="99.5" r="15.84"/><circle cx="207.31" cy="98.73" r="15.79"/><circle cx="208.18" cy="97.98" r="15.75"/><circle cx="209.08" cy="97.25" r="15.7"/><circle cx="209.99" cy="96.53" r="15.65"/><circle cx="210.93" cy="95.84" r="15.61"/><circle cx="211.88" cy="95.16" r="15.56"/><circle cx="212.86" cy="94.51" r="15.52"/><circle cx="213.85" cy="93.87" r="15.47"/><circle cx="214.87" cy="93.26" r="15.42"/><circle cx="215.91" cy="92.67" r="15.38"/><circle cx="216.96" cy="92.1" r="15.33"/><circle cx="218.04" cy="91.55" r="15.28"/><circle cx="219.14" cy="91.03" r="15.24"/><circle cx="220.26" cy="90.53" r="15.19"/><circle cx="221.41" cy="90.05" r="15.14"/><circle cx="222.57" cy="89.6" r="15.1"/><circle cx="223.76" cy="89.18" r="15.05"/><circle cx="224.97" cy="88.78" r="15"/><circle cx="226.2" cy="88.4" r="14.96"/><circle cx="227.46" cy="88.06" r="14.91"/><circle cx="228.73" cy="87.74" r="14.86"/><circle cx="230.03" cy="87.44" r="14.82"/><circle cx="231.36" cy="87.18" r="14.77"/><circle cx="232.71" cy="86.94" r="14.72"/><circle cx="234.08" cy="86.74" r="14.68"/><circle cx="235.48" cy="86.56" r="14.63"/><circle cx="236.9" cy="86.41" r="14.58"/><circle cx="238.34" cy="86.3" r="14.54"/><circle cx="239.81" cy="86.21" r="14.49"/><circle cx="241.3" cy="86.16" r="14.44"/><circle cx="242.82" cy="86.14" r="14.4"/><circle cx="244.37" cy="86.15" r="14.35"/><circle cx="245.94" cy="86.19" r="14.3"/><circle cx="247.53" cy="86.27" r="14.26"/><circle cx="249.16" cy="86.38" r="14.21"/><circle cx="250.8" cy="86.53" r="14.16"/><circle cx="252.48" cy="86.71" r="14.12"/><circle cx="254.18" cy="86.93" r="14.07"/><circle cx="255.85" cy="87.17" r="14.02"/><circle cx="257.51" cy="87.43" r="13.98"/><circle cx="259.14" cy="87.7" r="13.93"/><circle cx="260.76" cy="87.99" r="13.88"/><circle cx="262.37" cy="88.29" r="13.84"/><circle cx="263.96" cy="88.61" r="13.79"/><circle cx="265.53" cy="88.94" r="13.74"/><circle cx="267.09" cy="89.29" r="13.7"/><circle cx="268.62" cy="89.65" r="13.65"/><circle cx="270.15" cy="90.02" r="13.6"/><circle cx="271.66" cy="90.41" r="13.56"/><circle cx="273.15" cy="90.81" r="13.51"/><circle cx="274.63" cy="91.22" r="13.47"/><circle cx="276.09" cy="91.65" r="13.42"/><circle cx="277.54" cy="92.09" r="13.37"/><circle cx="278.97" cy="92.54" r="13.33"/><circle cx="280.38" cy="93" r="13.28"/><circle cx="281.78" cy="93.47" r="13.23"/><circle cx="283.17" cy="93.96" r="13.19"/><circle cx="284.54" cy="94.46" r="13.14"/><circle cx="285.9" cy="94.96" r="13.09"/><circle cx="287.24" cy="95.48" r="13.05"/><circle cx="288.57" cy="96.01" r="13"/><circle cx="289.88" cy="96.54" r="12.95"/><circle cx="291.18" cy="97.09" r="12.91"/><circle cx="292.47" cy="97.65" r="12.86"/><circle cx="293.74" cy="98.21" r="12.81"/><circle cx="295" cy="98.79" r="12.77"/><circle cx="296.24" cy="99.37" r="12.72"/><circle cx="297.47" cy="99.96" r="12.67"/><circle cx="298.69" cy="100.56" r="12.63"/><circle cx="299.89" cy="101.16" r="12.58"/><circle cx="301.08" cy="101.78" r="12.53"/><circle cx="302.26" cy="102.4" r="12.49"/><circle cx="303.42" cy="103.02" r="12.44"/><circle cx="304.57" cy="103.66" r="12.39"/><circle cx="305.71" cy="104.3" r="12.35"/><circle cx="306.84" cy="104.94" r="12.3"/><circle cx="307.95" cy="105.6" r="12.25"/><circle cx="309.05" cy="106.25" r="12.21"/><circle cx="310.14" cy="106.91" r="12.16"/><circle cx="311.21" cy="107.58" r="12.11"/><circle cx="312.27" cy="108.25" r="12.07"/><circle cx="313.33" cy="108.93" r="12.02"/><circle cx="314.36" cy="109.61" r="11.97"/><circle cx="315.39" cy="110.29" r="11.93"/><circle cx="316.41" cy="110.98" r="11.88"/><circle cx="317.41" cy="111.67" r="11.83"/><circle cx="318.4" cy="112.36" r="11.79"/><circle cx="319.38" cy="113.06" r="11.74"/><circle cx="320.35" cy="113.75" r="11.69"/><circle cx="321.31" cy="114.45" r="11.65"/><circle cx="322.26" cy="115.16" r="11.6"/><circle cx="323.2" cy="115.86" r="11.56"/><circle cx="324.12" cy="116.56" r="11.51"/><circle cx="325.04" cy="117.27" r="11.46"/><circle cx="325.94" cy="117.97" r="11.42"/><circle cx="326.83" cy="118.68" r="11.37"/><circle cx="327.72" cy="119.39" r="11.32"/><circle cx="328.59" cy="120.09" r="11.28"/><circle cx="329.45" cy="120.8" r="11.23"/><circle cx="330.3" cy="121.5" r="11.18"/><circle cx="331.15" cy="122.21" r="11.14"/><circle cx="331.98" cy="122.91" r="11.09"/><circle cx="332.8" cy="123.61" r="11.04"/><circle cx="333.61" cy="124.31" r="11"/><circle cx="334.42" cy="125.01" r="10.95"/><circle cx="335.21" cy="125.7" r="10.9"/><circle cx="336" cy="126.39" r="10.86"/><circle cx="336.77" cy="127.08" r="10.81"/><circle cx="337.54" cy="127.77" r="10.76"/><circle cx="338.3" cy="128.45" r="10.72"/><circle cx="339.04" cy="129.13" r="10.67"/><circle cx="339.78" cy="129.8" r="10.62"/><circle cx="340.52" cy="130.47" r="10.58"/><circle cx="341.24" cy="131.14" r="10.53"/><circle cx="341.95" cy="131.8" r="10.48"/><circle cx="342.66" cy="132.45" r="10.44"/><circle cx="343.36" cy="133.1" r="10.39"/><circle cx="344.05" cy="133.74" r="10.34"/><circle cx="344.73" cy="134.38" r="10.3"/><circle cx="345.4" cy="135.01" r="10.25"/><circle cx="346.07" cy="135.64" r="10.2"/><circle cx="346.72" cy="136.26" r="10.16"/><circle cx="347.38" cy="136.87" r="10.11"/><circle cx="348.02" cy="137.47" r="10.06"/><circle cx="348.65" cy="138.07" r="10.02"/><circle cx="349.28" cy="138.65" r="9.97"/><circle cx="349.91" cy="139.23" r="9.92"/><circle cx="350.52" cy="139.8" r="9.88"/><circle cx="351.13" cy="140.37" r="9.83"/><circle cx="351.73" cy="140.92" r="9.78"/><circle cx="352.32" cy="141.46" r="9.74"/><circle cx="352.91" cy="142" r="9.69"/><circle cx="353.49" cy="142.52" r="9.65"/><circle cx="354.07" cy="143.03" r="9.6"/><circle cx="354.64" cy="143.54" r="9.55"/><circle cx="355.2" cy="144.03" r="9.51"/><circle cx="355.76" cy="144.51" r="9.46"/><circle cx="356.31" cy="144.98" r="9.41"/><circle cx="356.85" cy="145.44" r="9.37"/><circle cx="357.39" cy="145.88" r="9.32"/><circle cx="357.92" cy="146.32" r="9.27"/><circle cx="358.45" cy="146.74" r="9.23"/><circle cx="358.98" cy="147.15" r="9.18"/><circle cx="359.49" cy="147.55" r="9.13"/><circle cx="360.01" cy="147.93" r="9.09"/><circle cx="360.51" cy="148.3" r="9.04"/><circle cx="361.02" cy="148.65" r="8.99"/><circle cx="361.51" cy="148.99" r="8.95"/><circle cx="362.01" cy="149.32" r="8.9"/><circle cx="362.5" cy="149.63" r="8.85"/><circle cx="362.98" cy="149.93" r="8.81"/><circle cx="363.46" cy="150.21" r="8.76"/><circle cx="363.94" cy="150.48" r="8.71"/><circle cx="364.41" cy="150.73" r="8.67"/><circle cx="364.87" cy="150.96" r="8.62"/><circle cx="365.34" cy="151.18" r="8.57"/><circle cx="365.8" cy="151.38" r="8.53"/><circle cx="366.25" cy="151.57" r="8.48"/><circle cx="366.71" cy="151.73" r="8.43"/><circle cx="367.16" cy="151.88" r="8.39"/><circle cx="367.6" cy="152.02" r="8.34"/><circle cx="368.04" cy="152.13" r="8.29"/><circle cx="368.48" cy="152.23" r="8.25"/><circle cx="368.92" cy="152.3" r="8.2"/><circle cx="369.35" cy="152.36" r="8.15"/><circle cx="369.79" cy="152.4" r="8.11"/><circle cx="370.21" cy="152.42" r="8.06"/><circle cx="370.64" cy="152.42" r="8.01"/><circle cx="371.06" cy="152.4" r="7.97"/><circle cx="371.48" cy="152.36" r="7.92"/><circle cx="371.9" cy="152.3" r="7.87"/><circle cx="372.32" cy="152.22" r="7.83"/><circle cx="372.73" cy="152.12" r="7.78"/><circle cx="373.14" cy="151.99" r="7.73"/><circle cx="373.55" cy="151.85" r="7.69"/><circle cx="373.96" cy="151.68" r="7.64"/><circle cx="374.37" cy="151.49" r="7.6"/><circle cx="374.78" cy="151.28" r="7.55"/><circle cx="375.18" cy="151.04" r="7.5"/><circle cx="375.68" cy="150.72" r="7.46"/><circle cx="376.19" cy="150.32" r="7.41"/><circle cx="376.66" cy="149.89" r="7.36"/><circle cx="377.08" cy="149.42" r="7.32"/><circle cx="377.47" cy="148.91" r="7.27"/><circle cx="377.81" cy="148.38" r="7.22"/><circle cx="378.12" cy="147.8" r="7.18"/><circle cx="378.38" cy="147.2" r="7.13"/><circle cx="378.61" cy="146.56" r="7.08"/><circle cx="378.8" cy="145.9" r="7.04"/><circle cx="378.96" cy="145.2" r="6.99"/><circle cx="379.07" cy="144.48" r="6.94"/><circle cx="379.16" cy="143.72" r="6.9"/><circle cx="379.2" cy="142.94" r="6.85"/><circle cx="379.22" cy="142.13" r="6.8"/><circle cx="379.2" cy="141.3" r="6.76"/><circle cx="379.15" cy="140.44" r="6.71"/><circle cx="379.07" cy="139.55" r="6.66"/><circle cx="378.95" cy="138.65" r="6.62"/><circle cx="378.81" cy="137.71" r="6.57"/><circle cx="378.64" cy="136.76" r="6.52"/><circle cx="378.44" cy="135.79" r="6.48"/><circle cx="378.21" cy="134.8" r="6.43"/><circle cx="377.96" cy="133.78" r="6.38"/><circle cx="377.68" cy="132.75" r="6.34"/><circle cx="377.37" cy="131.7" r="6.29"/><circle cx="377.04" cy="130.63" r="6.24"/><circle cx="376.69" cy="129.55" r="6.2"/><circle cx="376.31" cy="128.45" r="6.15"/><circle cx="375.91" cy="127.34" r="6.1"/><circle cx="375.49" cy="126.21" r="6.06"/><circle cx="375.05" cy="125.07" r="6.01"/><circle cx="374.58" cy="123.92" r="5.96"/><circle cx="374.1" cy="122.76" r="5.92"/><circle cx="373.6" cy="121.59" r="5.87"/><circle cx="373.08" cy="120.4" r="5.82"/><circle cx="372.55" cy="119.21" r="5.78"/><circle cx="372" cy="118.01" r="5.73"/><circle cx="371.43" cy="116.8" r="5.69"/><circle cx="370.85" cy="115.59" r="5.64"/><circle cx="370.26" cy="114.37" r="5.59"/><circle cx="369.65" cy="113.15" r="5.55"/><circle cx="369.03" cy="111.92" r="5.5"/><circle cx="368.39" cy="110.69" r="5.45"/><circle cx="367.75" cy="109.45" r="5.41"/><circle cx="367.1" cy="108.22" r="5.36"/><circle cx="366.43" cy="106.98" r="5.31"/><circle cx="365.76" cy="105.75" r="5.27"/><circle cx="365.08" cy="104.51" r="5.22"/><circle cx="364.4" cy="103.28" r="5.17"/><circle cx="363.7" cy="102.05" r="5.13"/><circle cx="363" cy="100.82" r="5.08"/><circle cx="362.3" cy="99.6" r="5.03"/><circle cx="361.59" cy="98.38" r="4.99"/><circle cx="360.88" cy="97.17" r="4.94"/><circle cx="360.17" cy="95.96" r="4.89"/><circle cx="359.45" cy="94.76" r="4.85"/><circle cx="358.73" cy="93.57" r="4.8"/><circle cx="358.02" cy="92.39" r="4.75"/><circle cx="357.3" cy="91.22" r="4.71"/><circle cx="356.58" cy="90.06" r="4.66"/><circle cx="355.87" cy="88.91" r="4.61"/><circle cx="355.16" cy="87.77" r="4.57"/><circle cx="354.45" cy="86.65" r="4.52"/><circle cx="353.75" cy="85.54" r="4.47"/><circle cx="353.05" cy="84.44" r="4.43"/><circle cx="352.35" cy="83.36" r="4.38"/><circle cx="351.67" cy="82.3" r="4.33"/><circle cx="350.99" cy="81.25" r="4.29"/><circle cx="350.32" cy="80.23" r="4.24"/><circle cx="349.65" cy="79.22" r="4.19"/><circle cx="349" cy="78.23" r="4.15"/><circle cx="348.36" cy="77.26" r="4.1"/><circle cx="347.73" cy="76.31" r="4.05"/><circle cx="347.11" cy="75.38" r="4.01"/><circle cx="346.5" cy="74.48" r="3.96"/><circle cx="345.9" cy="73.6" r="3.91"/><circle cx="345.32" cy="72.75" r="3.87"/><circle cx="344.76" cy="71.92" r="3.82"/><circle cx="344.21" cy="71.11" r="3.77"/><circle cx="343.68" cy="70.34" r="3.73"/><circle cx="343.16" cy="69.59" r="3.68"/><circle cx="342.66" cy="68.87" r="3.64"/><circle cx="342.18" cy="68.18" r="3.59"/><circle cx="341.72" cy="67.52" r="3.54"/><circle cx="341.28" cy="66.89" r="3.5"/><circle cx="340.86" cy="66.29" r="3.45"/><circle cx="340.46" cy="65.73" r="3.4"/><circle cx="340.08" cy="65.2" r="3.36"/><circle cx="339.73" cy="64.7" r="3.31"/><circle cx="339.4" cy="64.24" r="3.26"/><circle cx="339.1" cy="63.81" r="3.22"/><circle cx="338.82" cy="63.42" r="3.17"/><circle cx="338.57" cy="63.07" r="3.12"/><circle cx="338.34" cy="62.75" r="3.08"/><circle cx="338.14" cy="62.48" r="3.03"/><circle cx="337.97" cy="62.25" r="2.98"/><circle cx="337.83" cy="62.05" r="2.94"/><circle cx="337.72" cy="61.9" r="2.89"/><circle cx="337.64" cy="61.79" r="2.84"/><circle cx="337.59" cy="61.72" r="2.8"/><circle cx="337.58" cy="61.7" r="2.75"/><circle cx="184.05" cy="171.23" r="14.22"/><circle cx="184.06" cy="171.23" r="14.18"/><circle cx="184.1" cy="171.22" r="14.14"/><circle cx="184.16" cy="171.2" r="14.1"/><circle cx="184.25" cy="171.17" r="14.06"/><circle cx="184.36" cy="171.14" r="14.02"/><circle cx="184.49" cy="171.1" r="13.98"/><circle cx="184.65" cy="171.05" r="13.94"/><circle cx="184.83" cy="171" r="13.9"/><circle cx="185.04" cy="170.94" r="13.86"/><circle cx="185.28" cy="170.87" r="13.83"/><circle cx="185.53" cy="170.8" r="13.79"/><circle cx="185.81" cy="170.73" r="13.75"/><circle cx="186.12" cy="170.65" r="13.71"/><circle cx="186.45" cy="170.56" r="13.67"/><circle cx="186.8" cy="170.47" r="13.63"/><circle cx="187.18" cy="170.38" r="13.59"/><circle cx="187.58" cy="170.28" r="13.55"/><circle cx="188" cy="170.18" r="13.51"/><circle cx="188.45" cy="170.08" r="13.47"/><circle cx="188.92" cy="169.97" r="13.43"/><circle cx="189.42" cy="169.86" r="13.39"/><circle cx="189.93" cy="169.74" r="13.35"/><circle cx="190.48" cy="169.63" r="13.31"/><circle cx="191.04" cy="169.51" r="13.27"/><circle cx="191.63" cy="169.39" r="13.23"/><circle cx="192.24" cy="169.27" r="13.19"/><circle cx="192.88" cy="169.15" r="13.15"/><circle cx="193.54" cy="169.03" r="13.11"/><circle cx="194.22" cy="168.9" r="13.07"/><circle cx="194.92" cy="168.78" r="13.03"/><circle cx="195.65" cy="168.65" r="12.99"/><circle cx="196.4" cy="168.53" r="12.95"/><circle cx="197.18" cy="168.4" r="12.91"/><circle cx="197.97" cy="168.28" r="12.87"/><circle cx="198.79" cy="168.16" r="12.84"/><circle cx="199.63" cy="168.03" r="12.8"/><circle cx="200.5" cy="167.91" r="12.76"/><circle cx="201.38" cy="167.79" r="12.72"/><circle cx="202.29" cy="167.68" r="12.68"/><circle cx="203.23" cy="167.56" r="12.64"/><circle cx="204.18" cy="167.45" r="12.6"/><circle cx="205.16" cy="167.34" r="12.56"/><circle cx="206.16" cy="167.23" r="12.52"/><circle cx="207.18" cy="167.12" r="12.48"/><circle cx="208.22" cy="167.02" r="12.44"/><circle cx="209.29" cy="166.92" r="12.4"/><circle cx="210.38" cy="166.83" r="12.36"/><circle cx="211.49" cy="166.74" r="12.32"/><circle cx="212.62" cy="166.66" r="12.28"/><circle cx="213.77" cy="166.57" r="12.24"/><circle cx="214.95" cy="166.5" r="12.2"/><circle cx="216.15" cy="166.43" r="12.16"/><circle cx="217.37" cy="166.36" r="12.12"/><circle cx="218.61" cy="166.3" r="12.08"/><circle cx="219.87" cy="166.25" r="12.04"/><circle cx="221.15" cy="166.2" r="12"/><circle cx="222.46" cy="166.16" r="11.96"/><circle cx="223.79" cy="166.13" r="11.92"/><circle cx="225.13" cy="166.1" r="11.89"/><circle cx="226.5" cy="166.08" r="11.85"/><circle cx="227.89" cy="166.07" r="11.81"/><circle cx="229.31" cy="166.07" r="11.77"/><circle cx="230.74" cy="166.07" r="11.73"/><circle cx="232.19" cy="166.08" r="11.69"/><circle cx="233.67" cy="166.1" r="11.65"/><circle cx="235.17" cy="166.13" r="11.61"/><circle cx="236.68" cy="166.17" r="11.57"/><circle cx="238.22" cy="166.22" r="11.53"/><circle cx="239.78" cy="166.27" r="11.49"/><circle cx="241.36" cy="166.34" r="11.45"/><circle cx="242.96" cy="166.42" r="11.41"/><circle cx="244.58" cy="166.5" r="11.37"/><circle cx="246.22" cy="166.6" r="11.33"/><circle cx="247.89" cy="166.71" r="11.29"/><circle cx="249.57" cy="166.83" r="11.25"/><circle cx="251.27" cy="166.96" r="11.21"/><circle cx="252.99" cy="167.11" r="11.17"/><circle cx="254.74" cy="167.26" r="11.13"/><circle cx="256.5" cy="167.43" r="11.09"/><circle cx="258.29" cy="167.61" r="11.05"/><circle cx="260.09" cy="167.8" r="11.01"/><circle cx="261.91" cy="168.01" r="10.97"/><circle cx="263.76" cy="168.23" r="10.93"/><circle cx="265.62" cy="168.46" r="10.9"/><circle cx="267.51" cy="168.7" r="10.86"/><circle cx="269.42" cy="168.97" r="10.82"/><circle cx="271.61" cy="169.25" r="10.78"/><circle cx="273.71" cy="169.49" r="10.74"/><circle cx="275.72" cy="169.68" r="10.7"/><circle cx="277.64" cy="169.83" r="10.66"/><circle cx="279.48" cy="169.93" r="10.62"/><circle cx="281.23" cy="169.98" r="10.58"/><circle cx="282.9" cy="170" r="10.54"/><circle cx="284.48" cy="169.97" r="10.5"/><circle cx="285.99" cy="169.91" r="10.46"/><circle cx="287.41" cy="169.8" r="10.42"/><circle cx="288.76" cy="169.66" r="10.38"/><circle cx="290.04" cy="169.47" r="10.34"/><circle cx="291.24" cy="169.26" r="10.3"/><circle cx="292.36" cy="169" r="10.26"/><circle cx="293.42" cy="168.72" r="10.22"/><circle cx="294.41" cy="168.4" r="10.18"/><circle cx="295.33" cy="168.04" r="10.14"/><circle cx="296.18" cy="167.66" r="10.1"/><circle cx="296.97" cy="167.25" r="10.06"/><circle cx="297.69" cy="166.8" r="10.02"/><circle cx="298.35" cy="166.33" r="9.98"/><circle cx="298.96" cy="165.84" r="9.95"/><circle cx="299.5" cy="165.31" r="9.91"/><circle cx="299.99" cy="164.77" r="9.87"/><circle cx="300.42" cy="164.19" r="9.83"/><circle cx="300.79" cy="163.6" r="9.79"/><circle cx="301.12" cy="162.98" r="9.75"/><circle cx="301.39" cy="162.35" r="9.71"/><circle cx="301.61" cy="161.69" r="9.67"/><circle cx="301.79" cy="161.01" r="9.63"/><circle cx="301.91" cy="160.32" r="9.59"/><circle cx="302" cy="159.61" r="9.55"/><circle cx="302.04" cy="158.89" r="9.51"/><circle cx="302.03" cy="158.15" r="9.47"/><circle cx="301.99" cy="157.4" r="9.43"/><circle cx="301.91" cy="156.63" r="9.39"/><circle cx="301.79" cy="155.85" r="9.35"/><circle cx="301.63" cy="155.07" r="9.31"/><circle cx="301.45" cy="154.27" r="9.27"/><circle cx="301.22" cy="153.47" r="9.23"/><circle cx="300.97" cy="152.66" r="9.19"/><circle cx="300.69" cy="151.84" r="9.15"/><circle cx="300.38" cy="151.02" r="9.11"/><circle cx="300.04" cy="150.19" r="9.07"/><circle cx="299.67" cy="149.36" r="9.03"/><circle cx="299.29" cy="148.53" r="8.99"/><circle cx="298.88" cy="147.7" r="8.96"/><circle cx="298.45" cy="146.87" r="8.92"/><circle cx="298" cy="146.04" r="8.88"/><circle cx="297.53" cy="145.21" r="8.84"/><circle cx="297.05" cy="144.38" r="8.8"/><circle cx="296.55" cy="143.56" r="8.76"/><circle cx="296.04" cy="142.74" r="8.72"/><circle cx="295.52" cy="141.93" r="8.68"/><circle cx="294.99" cy="141.13" r="8.64"/><circle cx="294.45" cy="140.34" r="8.6"/><circle cx="293.91" cy="139.55" r="8.56"/><circle cx="293.36" cy="138.78" r="8.52"/><circle cx="292.8" cy="138.01" r="8.48"/><circle cx="292.24" cy="137.26" r="8.44"/><circle cx="291.69" cy="136.53" r="8.4"/><circle cx="291.13" cy="135.81" r="8.36"/><circle cx="290.57" cy="135.1" r="8.32"/><circle cx="290.02" cy="134.41" r="8.28"/><circle cx="289.48" cy="133.74" r="8.24"/><circle cx="288.94" cy="133.09" r="8.2"/><circle cx="288.41" cy="132.45" r="8.16"/><circle cx="287.89" cy="131.84" r="8.12"/><circle cx="287.38" cy="131.25" r="8.08"/><circle cx="286.88" cy="130.68" r="8.04"/><circle cx="286.4" cy="130.14" r="8"/><circle cx="285.93" cy="129.62" r="7.97"/><circle cx="285.49" cy="129.13" r="7.93"/><circle cx="284.64" cy="128.2" r="7.89"/><circle cx="283.59" cy="127.01" r="7.85"/><circle cx="282.58" cy="125.82" r="7.81"/><circle cx="281.61" cy="124.62" r="7.77"/><circle cx="280.67" cy="123.42" r="7.73"/><circle cx="279.77" cy="122.23" r="7.69"/><circle cx="278.9" cy="121.03" r="7.65"/><circle cx="278.08" cy="119.83" r="7.61"/><circle cx="277.28" cy="118.63" r="7.57"/><circle cx="276.53" cy="117.43" r="7.53"/><circle cx="275.8" cy="116.23" r="7.49"/><circle cx="275.12" cy="115.02" r="7.45"/><circle cx="274.46" cy="113.82" r="7.41"/><circle cx="273.84" cy="112.62" r="7.37"/><circle cx="273.25" cy="111.42" r="7.33"/><circle cx="272.7" cy="110.22" r="7.29"/><circle cx="272.17" cy="109.01" r="7.25"/><circle cx="271.68" cy="107.81" r="7.21"/><circle cx="271.22" cy="106.61" r="7.17"/><circle cx="270.8" cy="105.41" r="7.13"/><circle cx="270.4" cy="104.21" r="7.09"/><circle cx="270.03" cy="103.01" r="7.05"/><circle cx="269.69" cy="101.81" r="7.02"/><circle cx="269.38" cy="100.62" r="6.98"/><circle cx="269.1" cy="99.42" r="6.94"/><circle cx="268.85" cy="98.23" r="6.9"/><circle cx="268.63" cy="97.03" r="6.86"/><circle cx="268.43" cy="95.84" r="6.82"/><circle cx="268.27" cy="94.65" r="6.78"/><circle cx="268.13" cy="93.47" r="6.74"/><circle cx="268.01" cy="92.28" r="6.7"/><circle cx="267.92" cy="91.1" r="6.66"/><circle cx="267.86" cy="89.92" r="6.62"/><circle cx="267.82" cy="88.74" r="6.58"/><circle cx="267.81" cy="87.56" r="6.54"/><circle cx="267.82" cy="86.39" r="6.5"/><circle cx="267.86" cy="85.22" r="6.46"/><circle cx="267.91" cy="84.05" r="6.42"/><circle cx="268" cy="82.89" r="6.38"/><circle cx="268.1" cy="81.72" r="6.34"/><circle cx="268.23" cy="80.57" r="6.3"/><circle cx="268.38" cy="79.41" r="6.26"/><circle cx="268.55" cy="78.26" r="6.22"/><circle cx="268.74" cy="77.11" r="6.18"/><circle cx="268.95" cy="75.97" r="6.14"/><circle cx="269.18" cy="74.83" r="6.1"/><circle cx="269.43" cy="73.69" r="6.06"/><circle cx="269.7" cy="72.56" r="6.03"/><circle cx="269.99" cy="71.43" r="5.99"/><circle cx="270.3" cy="70.31" r="5.95"/><circle cx="270.63" cy="69.19" r="5.91"/><circle cx="270.97" cy="68.08" r="5.87"/><circle cx="271.34" cy="66.97" r="5.83"/><circle cx="271.71" cy="65.86" r="5.79"/><circle cx="272.11" cy="64.76" r="5.75"/><circle cx="272.52" cy="63.67" r="5.71"/><circle cx="272.95" cy="62.58" r="5.67"/><circle cx="273.39" cy="61.5" r="5.63"/><circle cx="273.85" cy="60.42" r="5.59"/><circle cx="274.32" cy="59.35" r="5.55"/><circle cx="274.8" cy="58.28" r="5.51"/><circle cx="275.3" cy="57.22" r="5.47"/><circle cx="275.81" cy="56.17" r="5.43"/><circle cx="276.34" cy="55.12" r="5.39"/><circle cx="276.87" cy="54.08" r="5.35"/><circle cx="277.42" cy="53.04" r="5.31"/><circle cx="277.98" cy="52.01" r="5.27"/><circle cx="278.55" cy="50.99" r="5.23"/><circle cx="279.13" cy="49.98" r="5.19"/><circle cx="279.73" cy="48.97" r="5.15"/><circle cx="280.33" cy="47.97" r="5.11"/><circle cx="280.94" cy="46.97" r="5.08"/><circle cx="281.56" cy="45.98" r="5.04"/><circle cx="282.19" cy="45" r="5"/><circle cx="282.82" cy="44.03" r="4.96"/><circle cx="283.47" cy="43.07" r="4.92"/><circle cx="284.12" cy="42.11" r="4.88"/><circle cx="284.78" cy="41.16" r="4.84"/><circle cx="285.44" cy="40.22" r="4.8"/><circle cx="286.12" cy="39.29" r="4.76"/><circle cx="286.79" cy="38.37" r="4.72"/><circle cx="287.47" cy="37.45" r="4.68"/><circle cx="288.16" cy="36.55" r="4.64"/><circle cx="288.85" cy="35.65" r="4.6"/><circle cx="289.55" cy="34.76" r="4.56"/><circle cx="290.25" cy="33.88" r="4.52"/><circle cx="290.95" cy="33.01" r="4.48"/><circle cx="291.65" cy="32.15" r="4.44"/><circle cx="292.36" cy="31.29" r="4.4"/><circle cx="293.07" cy="30.45" r="4.36"/><circle cx="293.78" cy="29.62" r="4.32"/><circle cx="294.49" cy="28.79" r="4.28"/><circle cx="295.2" cy="27.98" r="4.24"/><circle cx="295.91" cy="27.18" r="4.2"/><circle cx="296.62" cy="26.38" r="4.16"/><circle cx="297.33" cy="25.6" r="4.12"/><circle cx="298.04" cy="24.83" r="4.09"/><circle cx="298.75" cy="24.06" r="4.05"/><circle cx="299.46" cy="23.31" r="4.01"/><circle cx="300.16" cy="22.57" r="3.97"/><circle cx="300.87" cy="21.84" r="3.93"/><circle cx="301.57" cy="21.12" r="3.89"/><circle cx="302.26" cy="20.41" r="3.85"/><circle cx="302.95" cy="19.71" r="3.81"/><circle cx="303.64" cy="19.03" r="3.77"/><circle cx="304.32" cy="18.35" r="3.73"/><circle cx="305" cy="17.69" r="3.69"/><circle cx="305.67" cy="17.04" r="3.65"/><circle cx="306.33" cy="16.4" r="3.61"/><circle cx="306.99" cy="15.77" r="3.57"/><circle cx="307.64" cy="15.16" r="3.53"/><circle cx="308.29" cy="14.56" r="3.49"/><circle cx="308.93" cy="13.97" r="3.45"/><circle cx="309.55" cy="13.39" r="3.41"/><circle cx="310.18" cy="12.82" r="3.37"/><circle cx="310.79" cy="12.27" r="3.33"/><circle cx="311.39" cy="11.73" r="3.29"/><circle cx="311.98" cy="11.21" r="3.25"/><circle cx="312.56" cy="10.69" r="3.21"/><circle cx="313.13" cy="10.19" r="3.17"/><circle cx="313.69" cy="9.71" r="3.14"/><circle cx="314.24" cy="9.23" r="3.1"/><circle cx="314.78" cy="8.77" r="3.06"/><circle cx="315.31" cy="8.33" r="3.02"/><circle cx="315.82" cy="7.89" r="2.98"/><circle cx="316.32" cy="7.48" r="2.94"/><circle cx="316.8" cy="7.07" r="2.9"/><circle cx="317.27" cy="6.68" r="2.86"/><circle cx="317.73" cy="6.31" r="2.82"/><circle cx="318.17" cy="5.95" r="2.78"/><circle cx="318.6" cy="5.6" r="2.74"/><circle cx="319.01" cy="5.27" r="2.7"/><circle cx="319.41" cy="4.96" r="2.66"/><circle cx="319.79" cy="4.65" r="2.62"/><circle cx="320.15" cy="4.37" r="2.58"/><circle cx="320.49" cy="4.1" r="2.54"/><circle cx="320.82" cy="3.84" r="2.5"/><circle cx="321.13" cy="3.6" r="2.46"/><circle cx="321.42" cy="3.38" r="2.42"/><circle cx="321.69" cy="3.17" r="2.38"/><circle cx="321.95" cy="2.98" r="2.34"/><circle cx="322.18" cy="2.8" r="2.3"/><circle cx="322.39" cy="2.64" r="2.26"/><circle cx="322.58" cy="2.5" r="2.22"/><circle cx="322.75" cy="2.37" r="2.18"/><circle cx="322.9" cy="2.26" r="2.15"/><circle cx="323.03" cy="2.17" r="2.11"/><circle cx="323.14" cy="2.09" r="2.07"/><circle cx="323.22" cy="2.03" r="2.03"/><circle cx="323.28" cy="1.99" r="1.99"/><circle cx="323.31" cy="1.96" r="1.95"/><circle cx="323.33" cy="1.95" r="1.91"/></g></g></svg>